<svg xmlns="http://www.w3.org/2000/svg" width="19" height="16.889" viewBox="0 0 19 16.889"><defs><style>.a{fill:#8d99ae;}</style></defs><path class="a" d="M19,7.917A2.1,2.1,0,0,0,17.945,6.1V1.056A1.066,1.066,0,0,0,16.889,0a1.053,1.053,0,0,0-.659.232l-2.8,2.244A8.006,8.006,0,0,1,8.445,4.222H2.111A2.111,2.111,0,0,0,0,6.333V9.5a2.111,2.111,0,0,0,2.111,2.111H3.223a8.016,8.016,0,0,0-.072,1.056,8.356,8.356,0,0,0,.843,3.66,1.035,1.035,0,0,0,.937.563h2.45a1.049,1.049,0,0,0,.854-1.668,4.2,4.2,0,0,1-.863-2.554,3.992,3.992,0,0,1,.145-1.056h.926a8,8,0,0,1,4.98,1.747l2.8,2.244a1.055,1.055,0,0,0,1.715-.824V9.735A2.1,2.1,0,0,0,19,7.917Zm-3.167,4.665-1.09-.872A10.12,10.12,0,0,0,8.445,9.5V6.333a10.12,10.12,0,0,0,6.3-2.209l1.09-.872Z"/></svg>