<svg xmlns="http://www.w3.org/2000/svg" width="24.962" height="21.842" viewBox="0 0 24.962 21.842"><defs><style>.a{fill:#9fa3a7;}</style></defs><path class="a" d="M12.481,32C5.587,32,0,36.539,0,42.141a9,9,0,0,0,2.779,6.372A12.4,12.4,0,0,1,.107,53.183a.388.388,0,0,0-.073.424.382.382,0,0,0,.356.234,11.15,11.15,0,0,0,6.855-2.506,14.869,14.869,0,0,0,5.236.946c6.894,0,12.481-4.539,12.481-10.141S19.375,32,12.481,32ZM6.24,43.7a1.56,1.56,0,1,1,1.56-1.56A1.558,1.558,0,0,1,6.24,43.7Zm6.24,0a1.56,1.56,0,1,1,1.56-1.56A1.558,1.558,0,0,1,12.481,43.7Zm6.24,0a1.56,1.56,0,1,1,1.56-1.56A1.558,1.558,0,0,1,18.721,43.7Z" transform="translate(0 -32)"/></svg>