<svg xmlns="http://www.w3.org/2000/svg" width="25" height="20" viewBox="0 0 25 20"><defs><style>.a{fill:#9fa3a7;}</style></defs><path class="a" d="M24.375,17.5H21.25V4.433A1.906,1.906,0,0,0,19.375,2.5H15V5h3.75V20h5.625A.625.625,0,0,0,25,19.376v-1.25A.625.625,0,0,0,24.375,17.5ZM12.2.04,4.7,1.983A1.287,1.287,0,0,0,3.75,3.24V17.5H.625A.625.625,0,0,0,0,18.126v1.25A.625.625,0,0,0,.625,20H13.75V1.3A1.261,1.261,0,0,0,12.2.04ZM10.313,11.251c-.518,0-.938-.56-.938-1.25s.42-1.25.938-1.25.938.56.938,1.25S10.83,11.251,10.313,11.251Z" transform="translate(0 -0.001)"/></svg>