<svg xmlns="http://www.w3.org/2000/svg" width="32.799" height="29.155" viewBox="0 0 32.799 29.155"><defs><style>.a{fill:#9fa3a7;}</style></defs><path class="a" d="M32.43,25.056a2.735,2.735,0,0,1-2.368,4.1H2.736a2.735,2.735,0,0,1-2.368-4.1L14.032,1.366a2.735,2.735,0,0,1,4.735,0L32.43,25.056Zm-16.03-4.9a2.619,2.619,0,1,0,2.619,2.619A2.619,2.619,0,0,0,16.4,20.158Zm-2.487-9.415.422,7.744a.683.683,0,0,0,.682.646h2.764a.683.683,0,0,0,.682-.646l.422-7.744a.683.683,0,0,0-.682-.721H14.595a.683.683,0,0,0-.682.721Z" transform="translate(0)"/></svg>