<svg xmlns="http://www.w3.org/2000/svg" width="46.125" height="41" viewBox="0 0 46.125 41"><defs><style>.a{fill:#9fa3a7;}</style></defs><path class="a" d="M23.062,0a10.09,10.09,0,0,0-10.09,10.09c0,4.505,6.594,12.716,9.121,15.7a1.263,1.263,0,0,0,1.938,0c2.526-2.981,9.121-11.192,9.121-15.7A10.09,10.09,0,0,0,23.062,0Zm0,13.453a3.363,3.363,0,1,1,3.363-3.363A3.363,3.363,0,0,1,23.062,13.453ZM1.611,17.293A2.563,2.563,0,0,0,0,19.672V39.717a1.281,1.281,0,0,0,1.757,1.19l11.056-5.032V17.21a24.25,24.25,0,0,1-1.7-3.717ZM23.062,28.8a3.826,3.826,0,0,1-2.924-1.358c-1.574-1.858-3.249-3.973-4.764-6.144V35.874L30.75,41V21.3c-1.515,2.169-3.189,4.286-4.764,6.144A3.828,3.828,0,0,1,23.062,28.8Zm21.306-15.9L33.313,17.937V41l11.2-4.48a2.562,2.562,0,0,0,1.611-2.379V14.1a1.281,1.281,0,0,0-1.757-1.19Z" transform="translate(0)"/></svg>