<svg xmlns="http://www.w3.org/2000/svg" width="24.962" height="24.962" viewBox="0 0 24.962 24.962"><defs><style>.a{fill:#9fa3a7;}</style></defs><path class="a" d="M24.045,1.189,18.975.019A1.178,1.178,0,0,0,17.634.7l-2.34,5.46a1.167,1.167,0,0,0,.336,1.365L18.585,9.94a18.069,18.069,0,0,1-8.639,8.639L7.527,15.625a1.169,1.169,0,0,0-1.365-.336L.7,17.629a1.184,1.184,0,0,0-.683,1.346l1.17,5.07a1.17,1.17,0,0,0,1.141.907A22.619,22.619,0,0,0,24.952,2.33,1.169,1.169,0,0,0,24.045,1.189Z" transform="translate(0.01 0.011)"/></svg>