<svg xmlns="http://www.w3.org/2000/svg" width="17.901" height="17.901" viewBox="0 0 17.901 17.901"><defs><style>.a{fill:#fff;}</style></defs><path class="a" d="M16.951,8A8.951,8.951,0,1,0,25.9,16.951,8.949,8.949,0,0,0,16.951,8Zm5.2,9.961a.434.434,0,0,1-.433.433h-3.32v3.32a.434.434,0,0,1-.433.433H15.94a.434.434,0,0,1-.433-.433v-3.32h-3.32a.434.434,0,0,1-.433-.433V15.94a.434.434,0,0,1,.433-.433h3.32v-3.32a.434.434,0,0,1,.433-.433h2.021a.434.434,0,0,1,.433.433v3.32h3.32a.434.434,0,0,1,.433.433Z" transform="translate(-8 -8)"/></svg>