<svg xmlns="http://www.w3.org/2000/svg" width="13.364" height="17.82" viewBox="0 0 13.364 17.82"><defs><style>.a{fill:#9fa3a7;}</style></defs><path class="a" d="M12.473.085,11.136,1.644,9.243.085a.553.553,0,0,0-.668,0L6.682,1.644,4.789.085a.553.553,0,0,0-.668,0L2.227,1.644.891.085A.557.557,0,0,0,0,.531v16.7a.557.557,0,0,0,.891.445l1.336-1.559L4.12,17.681a.553.553,0,0,0,.668,0l1.893-1.559,1.893,1.559a.553.553,0,0,0,.668,0l1.893-1.559,1.336,1.559a.557.557,0,0,0,.891-.445V.531a.557.557,0,0,0-.891-.445ZM11.136,12.5a.279.279,0,0,1-.278.278H2.506a.279.279,0,0,1-.278-.278v-.557a.279.279,0,0,1,.278-.278h8.352a.279.279,0,0,1,.278.278Zm0-3.341a.279.279,0,0,1-.278.278H2.506a.279.279,0,0,1-.278-.278V8.6a.279.279,0,0,1,.278-.278h8.352a.279.279,0,0,1,.278.278Zm0-3.341a.279.279,0,0,1-.278.278H2.506a.279.279,0,0,1-.278-.278V5.264a.279.279,0,0,1,.278-.278h8.352a.279.279,0,0,1,.278.278Z" transform="translate(0 0.027)"/></svg>