<svg xmlns="http://www.w3.org/2000/svg" width="24.998" height="20" viewBox="0 0 24.998 20"><defs><style>.a{fill:#9fa3a7;}</style></defs><path class="a" d="M12.549,15h-7.5V8.75h-2.5v10A1.249,1.249,0,0,0,3.8,20h10a1.249,1.249,0,0,0,1.25-1.25v-10h-2.5ZM24.838,5.555l-3.332-5A1.257,1.257,0,0,0,20.463,0H4.635A1.245,1.245,0,0,0,3.6.555l-3.332,5A1.25,1.25,0,0,0,1.3,7.5H23.8A1.252,1.252,0,0,0,24.838,5.555Zm-4.789,13.82a.627.627,0,0,0,.625.625h1.25a.627.627,0,0,0,.625-.625V8.75h-2.5Z" transform="translate(-0.051)"/></svg>