<svg xmlns="http://www.w3.org/2000/svg" width="27.163" height="19.014" viewBox="0 0 27.163 19.014"><defs><style>.a{fill:#9fa3a7;}</style></defs><path class="a" d="M8.149,41.507A4.754,4.754,0,1,0,3.4,36.754,4.751,4.751,0,0,0,8.149,41.507Zm3.26,1.358h-.352a6.563,6.563,0,0,1-5.815,0H4.889A4.891,4.891,0,0,0,0,47.755v1.222a2.038,2.038,0,0,0,2.037,2.037H14.261A2.038,2.038,0,0,0,16.3,48.977V47.755A4.891,4.891,0,0,0,11.408,42.865Zm8.964-1.358A4.074,4.074,0,1,0,16.3,37.433,4.075,4.075,0,0,0,20.372,41.507Zm2.037,1.358h-.161a5.352,5.352,0,0,1-3.752,0h-.161a4.714,4.714,0,0,0-2.364.654,6.211,6.211,0,0,1,1.685,4.236v1.63c0,.093-.021.182-.025.272h7.5a2.038,2.038,0,0,0,2.037-2.037A4.751,4.751,0,0,0,22.409,42.865Z" transform="translate(0 -32)"/></svg>