<svg xmlns="http://www.w3.org/2000/svg" width="22.857" height="20" viewBox="0 0 22.857 20"><defs><style>.a{fill:#b6b9bc;}</style></defs><path class="a" d="M20.589,36.286H3.571a.714.714,0,1,1,0-1.429H20.714a.714.714,0,0,0,.714-.714A2.143,2.143,0,0,0,19.286,32H2.857A2.857,2.857,0,0,0,0,34.857V49.143A2.857,2.857,0,0,0,2.857,52H20.589a2.21,2.21,0,0,0,2.268-2.143V38.429A2.21,2.21,0,0,0,20.589,36.286Zm-2.018,9.286A1.429,1.429,0,1,1,20,44.143,1.429,1.429,0,0,1,18.571,45.571Z" transform="translate(0 -32)"/></svg>