<svg xmlns="http://www.w3.org/2000/svg" width="13.362" height="15.548" viewBox="0 0 13.362 15.548">
  <path id="id-badge-solid" d="M11.692,2.267H1.67A1.671,1.671,0,0,0,0,3.938V16.145a1.671,1.671,0,0,0,1.67,1.67H11.692a1.671,1.671,0,0,0,1.67-1.67V3.938A1.671,1.671,0,0,0,11.692,2.267Zm-5.011,3.3A2.227,2.227,0,1,1,4.454,7.794,2.229,2.229,0,0,1,6.681,5.567Zm3.9,8.24a.73.73,0,0,1-.779.668H3.563a.73.73,0,0,1-.779-.668v-.668a2.191,2.191,0,0,1,2.338-2H5.3a3.584,3.584,0,0,0,2.77,0H8.24a2.191,2.191,0,0,1,2.338,2Z" transform="translate(0 -2.267)"/>
</svg>
