<svg xmlns="http://www.w3.org/2000/svg" width="15.969" height="13.285" viewBox="0 0 15.969 13.285">
  <path id="Path_3" data-name="Path 3" d="M2.557.566c.528-.12,1.06-.222,1.591-.3A25.151,25.151,0,0,1,7.953.009a28.925,28.925,0,0,1,3.8.24c.623.084,1.242.2,1.861.35l0,.015a2.8,2.8,0,0,1,1.529.954L7.961,5.85.587,1.819A2.806,2.806,0,0,1,2.557.566ZM15.732,2.839c.015.076.025.157.033.233h.011c.025.269.047.535.069.8.069.914.109,1.835.113,2.749s-.029,1.835-.087,2.753c-.015.226-.029.452-.051.677a2.812,2.812,0,0,1-2.076,2.585h0l-.091.022h0c-.619.149-1.242.273-1.864.364a27.007,27.007,0,0,1-3.827.266,25.471,25.471,0,0,1-3.827-.255c-.6-.087-1.2-.208-1.8-.346l0-.022A2.81,2.81,0,0,1,.15,10.26l-.025-.011C.1,9.969.081,9.688.066,9.408.015,8.49-.014,7.573-.011,6.659S.026,4.823.084,3.906c.015-.218.029-.437.047-.652,0-.029,0-.058,0-.087L7.986,7.46l7.738-4.617Z" transform="translate(0.011 -0.009)" fill-rule="evenodd"/>
</svg>
