<?xml version="1.0" standalone="no"?>
<!DOCTYPE svg PUBLIC "-//W3C//DTD SVG 20010904//EN"
 "http://www.w3.org/TR/2001/REC-SVG-20010904/DTD/svg10.dtd">
<svg version="1.0" xmlns="http://www.w3.org/2000/svg"
 width="640.000000pt" height="640.000000pt" viewBox="0 0 640.000000 640.000000"
 preserveAspectRatio="xMidYMid meet">

<g transform="translate(0.000000,640.000000) scale(0.100000,-0.100000)"
fill="#000000" stroke="none">
<path d="M2941 6069 c-1108 -98 -2067 -866 -2421 -1939 -245 -739 -186 -1541
164 -2240 169 -337 388 -619 694 -893 169 -150 209 -183 325 -261 116 -78 191
-118 289 -150 40 -14 111 -41 158 -61 186 -78 430 -145 670 -182 163 -25 586
-25 755 0 261 39 493 104 720 203 72 31 147 62 167 69 58 21 264 156 441 288
160 120 400 341 413 379 3 11 35 57 71 101 297 371 503 835 582 1313 28 165
54 511 37 493 -2 -2 -9 -69 -16 -149 -45 -559 -216 -1034 -537 -1493 -42 -59
-78 -106 -80 -104 -2 2 3 31 12 63 21 83 30 237 16 309 -6 33 -22 81 -35 106
l-24 46 39 49 c115 144 220 379 284 633 29 115 65 312 65 356 0 31 77 154 182
290 74 97 75 97 83 18 10 -101 14 -100 13 4 -1 61 2 96 11 107 35 41 -79 563
-184 841 -63 168 -154 336 -301 560 -199 302 -486 590 -788 790 -531 350
-1168 510 -1805 454z m1036 -163 c337 -97 674 -272 953 -492 144 -114 406
-386 514 -534 6 -8 -15 7 -47 32 -107 86 -246 158 -307 158 -11 0 -53 31 -95
69 -193 179 -443 334 -723 447 -99 39 -105 43 -132 91 -36 62 -157 176 -241
226 -35 20 -58 37 -52 37 6 0 65 -15 130 -34z m-1472 -7 c-60 -38 -156 -129
-200 -190 -24 -32 -46 -49 -72 -57 -67 -20 -225 -102 -323 -167 -182 -121
-351 -277 -492 -454 -50 -62 -64 -74 -91 -76 -36 -2 -293 -126 -376 -180 -28
-19 -51 -31 -51 -27 1 12 124 180 202 275 91 111 297 311 413 402 265 207 580
372 895 469 142 43 157 44 95 5z m87 -339 c280 -48 467 -106 561 -175 l47 -35
-2 -422 -3 -422 -420 -317 c-231 -174 -436 -329 -456 -344 l-37 -26 -328 76
c-181 41 -381 88 -444 103 l-115 28 -21 84 c-45 177 -58 279 -58 455 0 143 4
185 23 261 22 91 23 93 110 190 224 252 472 439 726 547 85 36 94 37 167 32
43 -3 155 -19 250 -35z m1733 -40 c338 -164 651 -402 715 -545 39 -84 85 -235
106 -340 24 -120 24 -325 0 -419 -20 -84 -72 -194 -95 -200 -9 -3 -192 -50
-408 -106 l-392 -102 -216 157 c-119 86 -337 243 -483 347 -147 105 -270 196
-274 201 -3 6 -7 185 -8 399 l-1 389 108 50 c229 107 397 172 544 209 90 23
214 40 244 32 11 -2 83 -35 160 -72z m-2516 -1660 c223 -55 405 -101 406 -103
1 -1 19 -58 39 -127 48 -161 137 -442 238 -748 l80 -243 -228 -362 c-125 -199
-245 -393 -268 -430 l-41 -68 -70 6 c-238 21 -791 164 -836 216 -9 10 -38 67
-64 126 -138 315 -213 582 -237 843 l-11 125 34 75 c155 341 290 562 434 708
55 55 98 90 106 88 8 -3 196 -51 418 -106z m3426 -32 c232 -242 379 -475 430
-681 9 -34 21 -72 27 -85 13 -26 -3 -127 -52 -323 -63 -251 -171 -500 -280
-644 -54 -72 -67 -83 -132 -113 -285 -131 -581 -216 -725 -210 l-65 3 -85 135
c-47 74 -164 263 -261 419 l-175 284 112 341 c62 188 145 440 185 561 l72 220
50 13 c27 7 207 55 399 106 193 52 357 94 366 95 10 1 70 -54 134 -121z
m-4688 -467 c43 -83 137 -192 183 -211 30 -12 30 -14 30 -86 0 -279 108 -692
275 -1051 42 -90 43 -93 38 -175 -7 -104 11 -297 36 -403 l19 -80 -24 30 c-32
38 -119 154 -166 220 -58 83 -146 239 -213 378 -199 416 -286 847 -272 1335 4
112 10 208 13 214 4 5 15 -14 25 -43 10 -30 36 -87 56 -128z m2916 -795 c219
-7 399 -15 400 -17 2 -2 117 -188 257 -413 l253 -409 -13 -36 c-7 -20 -39 -88
-71 -152 -141 -285 -291 -475 -464 -592 -33 -22 -63 -44 -66 -49 -3 -5 -73
-18 -155 -30 -211 -30 -636 -32 -803 -4 -97 16 -117 23 -135 44 -12 14 -50 57
-85 96 -190 210 -345 428 -426 598 -64 135 -76 102 157 475 113 180 231 370
263 422 l58 94 216 -7 c119 -4 395 -13 614 -20z m-673 -1777 c218 -40 578 -36
895 11 l133 20 73 -49 c123 -81 302 -161 359 -161 44 0 15 -17 -98 -57 -323
-116 -594 -163 -932 -164 -202 0 -325 10 -497 42 -247 44 -564 149 -452 149
37 0 198 92 272 155 42 36 77 71 77 77 0 7 11 8 33 3 17 -4 79 -15 137 -26z"/>
</g>
</svg>
