<svg xmlns="http://www.w3.org/2000/svg" width="224.856" height="27.456" viewBox="0 0 224.856 27.456">
  <g id="Group_413" data-name="Group 413" transform="translate(-131.405 -294)">
    <path id="star-solid_2_" data-name="star-solid (2)" d="M33.3.942l-3.5,7.1L21.969,9.184a1.717,1.717,0,0,0-.949,2.928l5.667,5.523-1.34,7.8a1.715,1.715,0,0,0,2.488,1.807l7.008-3.684,7.008,3.684a1.716,1.716,0,0,0,2.488-1.807L43,17.634l5.667-5.523a1.717,1.717,0,0,0-.949-2.928L39.883,8.042l-3.5-7.1A1.717,1.717,0,0,0,33.3.942Z" transform="translate(110.905 294.013)" fill="#fd9f27"/>
    <path id="star-solid_2_2" data-name="star-solid (2)" d="M33.3.942l-3.5,7.1L21.969,9.184a1.717,1.717,0,0,0-.949,2.928l5.667,5.523-1.34,7.8a1.715,1.715,0,0,0,2.488,1.807l7.008-3.684,7.008,3.684a1.716,1.716,0,0,0,2.488-1.807L43,17.634l5.667-5.523a1.717,1.717,0,0,0-.949-2.928L39.883,8.042l-3.5-7.1A1.717,1.717,0,0,0,33.3.942Z" transform="translate(209.076 294.013)" fill="#fd9f27"/>
    <path id="star-solid_2_3" data-name="star-solid (2)" d="M33.3.942l-3.5,7.1L21.969,9.184a1.717,1.717,0,0,0-.949,2.928l5.667,5.523-1.34,7.8a1.715,1.715,0,0,0,2.488,1.807l7.008-3.684,7.008,3.684a1.716,1.716,0,0,0,2.488-1.807L43,17.634l5.667-5.523a1.717,1.717,0,0,0-.949-2.928L39.883,8.042l-3.5-7.1A1.717,1.717,0,0,0,33.3.942Z" transform="translate(258.076 294.013)" fill="#fd9f27"/>
    <path id="star-solid_2_4" data-name="star-solid (2)" d="M33.3.942l-3.5,7.1L21.969,9.184a1.717,1.717,0,0,0-.949,2.928l5.667,5.523-1.34,7.8a1.715,1.715,0,0,0,2.488,1.807l7.008-3.684,7.008,3.684a1.716,1.716,0,0,0,2.488-1.807L43,17.634l5.667-5.523a1.717,1.717,0,0,0-.949-2.928L39.883,8.042l-3.5-7.1A1.717,1.717,0,0,0,33.3.942Z" transform="translate(307.076 294.013)" fill="#fd9f27"/>
    <path id="star-solid_2_5" data-name="star-solid (2)" d="M33.3.942l-3.5,7.1L21.969,9.184a1.717,1.717,0,0,0-.949,2.928l5.667,5.523-1.34,7.8a1.715,1.715,0,0,0,2.488,1.807l7.008-3.684,7.008,3.684a1.716,1.716,0,0,0,2.488-1.807L43,17.634l5.667-5.523a1.717,1.717,0,0,0-.949-2.928L39.883,8.042l-3.5-7.1A1.717,1.717,0,0,0,33.3.942Z" transform="translate(159.99 294.013)" fill="#fd9f27"/>
    <path id="star-half-alt-solid_1_" data-name="star-half-alt-solid (1)" d="M27.265,9.2,19.416,8.054,15.909.955a1.722,1.722,0,0,0-3.084,0l-3.508,7.1L1.468,9.195a1.716,1.716,0,0,0-.951,2.927l5.678,5.523-1.344,7.8a1.72,1.72,0,0,0,1.695,2.008,1.7,1.7,0,0,0,.8-.2l7.022-3.683,7.021,3.684a1.716,1.716,0,0,0,2.493-1.806l-1.342-7.8,5.679-5.522A1.716,1.716,0,0,0,27.265,9.2ZM20.737,15.8l-.972.945.229,1.334,1.047,6.083-5.476-2.874-1.2-.63,0-17.008L17.1,9.192l.6,1.213,1.341.2,6.125.892Z" transform="translate(278.382 294)" fill="#fd9f27"/>
    <path id="star-regular" d="M47.714,9.183,39.881,8.041l-3.5-7.1a1.717,1.717,0,0,0-3.077,0l-3.5,7.1L21.969,9.183a1.717,1.717,0,0,0-.949,2.927l5.667,5.522-1.34,7.8a1.715,1.715,0,0,0,2.488,1.807l7.007-3.683,7.007,3.683a1.716,1.716,0,0,0,2.488-1.807L43,17.632l5.667-5.522a1.717,1.717,0,0,0-.949-2.927Zm-7.479,7.549,1.271,7.42-6.664-3.5-6.664,3.5,1.271-7.42-5.394-5.254,7.452-1.083,3.335-6.755,3.335,6.755,7.452,1.083-5.394,5.254Z" transform="translate(306.964 294.013)" fill="#fd9f27"/>
  </g>
</svg>
