<svg xmlns="http://www.w3.org/2000/svg" width="42.249" height="36.968" viewBox="0 0 42.249 36.968"><defs><style>.a{fill:#fd9f27;}</style></defs><path class="a" d="M21.124,32C9.456,32,0,39.682,0,49.164A15.234,15.234,0,0,0,4.7,59.949,20.992,20.992,0,0,1,.182,67.854a.656.656,0,0,0-.124.718.646.646,0,0,0,.6.4,18.871,18.871,0,0,0,11.6-4.241,25.166,25.166,0,0,0,8.862,1.6c11.668,0,21.124-7.682,21.124-17.164S32.792,32,21.124,32ZM10.562,51.8A2.641,2.641,0,1,1,13.2,49.164,2.638,2.638,0,0,1,10.562,51.8Zm10.562,0a2.641,2.641,0,1,1,2.641-2.641A2.638,2.638,0,0,1,21.124,51.8Zm10.562,0a2.641,2.641,0,1,1,2.641-2.641A2.638,2.638,0,0,1,31.687,51.8Z" transform="translate(0 -32)"/></svg>