<svg xmlns="http://www.w3.org/2000/svg" width="10.592" height="14.122" viewBox="0 0 10.592 14.122"><defs><style>.a{fill:#1fb219;}.b{fill:#efefef;}</style></defs><path class="a" d="M69.3,0A5.3,5.3,0,0,0,64,5.3c0,3.671,4.78,8.494,4.983,8.7a.443.443,0,0,0,.625,0c.2-.2,4.983-5.027,4.983-8.7A5.3,5.3,0,0,0,69.3,0Z" transform="translate(-64)"/><path class="b" d="M2.545,0A2.682,2.682,0,0,1,5.091,2.8,2.682,2.682,0,0,1,2.545,5.6,2.682,2.682,0,0,1,0,2.8,2.682,2.682,0,0,1,2.545,0Z" transform="translate(2.849 2.441)"/></svg>