<svg xmlns="http://www.w3.org/2000/svg" width="14.972" height="20" viewBox="0 0 14.972 20"><defs><style>.a{fill:#656565;}</style></defs><g transform="translate(-13.612 429.719)"><path class="a" d="M21.906-429.682a1.654,1.654,0,0,0-1.069.85c-.057.125-.328,1.084-.6,2.127l-.485,1.9-.547.031c-.3.021-1.481.036-2.628.042-1.272.005-2.164.026-2.284.063a.927.927,0,0,0-.631.626.679.679,0,0,0-.005.506.938.938,0,0,0,.9.678l.3.036.615,6.048c.433,4.322.636,6.11.7,6.282a1.277,1.277,0,0,0,.292.428c.375.365.266.36,4.765.344l4.009-.016.25-.125a1.264,1.264,0,0,0,.636-.808c.036-.146.318-2.82.62-5.949s.568-5.8.584-5.949l.031-.266.318-.036a.91.91,0,0,0,.751-.391.933.933,0,0,0-.3-1.329c-.177-.1-.261-.109-3.316-.125l-3.133-.016.386-1.554.391-1.559.871-.021c.964-.016,1.116-.063,1.345-.4a.933.933,0,0,0-.3-1.329c-.167-.1-.276-.109-1.225-.12A10.551,10.551,0,0,0,21.906-429.682Zm3.561,6.918c0,.052-.245,2.544-.547,5.542s-.547,5.49-.547,5.537c0,.089-.188.094-3.253.094H17.866l-.031-.2c-.016-.1-.266-2.549-.553-5.432s-.532-5.328-.547-5.438l-.026-.193h4.379C25.222-422.852,25.467-422.847,25.467-422.763Z" transform="translate(0 0)"/></g></svg>