<svg xmlns="http://www.w3.org/2000/svg" width="17.517" height="20" viewBox="0 0 17.517 20"><defs><style>.a{fill:#656565;}</style></defs><g transform="translate(-37.5 413.619)"><path class="a" d="M39.614-413.587a2.567,2.567,0,0,0-2.02,1.817c-.089.277-.094.783-.094,8.154,0,7.512.005,7.872.1,8.165a2.559,2.559,0,0,0,1.644,1.712l.345.12H46.27c6.651,0,6.682,0,7-.11a2.591,2.591,0,0,0,1.691-1.895c.073-.386.073-15.6,0-15.979a2.6,2.6,0,0,0-1.723-1.911c-.271-.094-.626-.1-6.839-.1C42.8-413.624,39.745-413.608,39.614-413.587Zm13.207,1.921a.6.6,0,0,1,.245.219,29.28,29.28,0,0,1,.068,3.508v3.383H39.348l.016-3.414.016-3.414.131-.141a.822.822,0,0,1,.235-.183c.057-.026,2.981-.047,6.5-.047C52.232-411.76,52.649-411.755,52.822-411.666Zm.313,12.367c0,3.263-.005,3.388-.1,3.55a.485.485,0,0,1-.3.224c-.141.042-2.057.052-6.6.042l-6.411-.016-.167-.172-.172-.167-.016-3.419-.016-3.419H53.135Z" transform="translate(0 0)"/><path class="a" d="M122.033-341.687a1.191,1.191,0,0,0-.82.652,3.742,3.742,0,0,0-.084,1.671c.115.35.277.423.893.423.428,0,.559-.021.673-.094a.719.719,0,0,0,.251-.616v-.2h5l.031.266c.063.538.313.7,1.028.663.506-.026.689-.11.778-.365a4.957,4.957,0,0,0-.021-1.644,1.311,1.311,0,0,0-.564-.658l-.219-.115-3.393-.01C123.719-341.724,122.122-341.708,122.033-341.687Z" transform="translate(-79.209 -68.147)"/><path class="a" d="M122.033-161.687a1.191,1.191,0,0,0-.82.653,3.742,3.742,0,0,0-.084,1.671c.115.35.277.423.893.423.428,0,.559-.021.673-.094a.719.719,0,0,0,.251-.616v-.2h5l.031.266c.063.538.313.7,1.028.663.506-.026.689-.11.778-.365a4.957,4.957,0,0,0-.021-1.644,1.311,1.311,0,0,0-.564-.658l-.219-.115-3.393-.01C123.719-161.724,122.122-161.708,122.033-161.687Z" transform="translate(-79.209 -238.75)"/></g></svg>