<svg xmlns="http://www.w3.org/2000/svg" width="22.894" height="20" viewBox="0 0 22.894 20"><defs><style>.a{fill:#656565;}</style></defs><path class="a" d="M27.865-375.817a3.808,3.808,0,0,0-2.809,2,27.728,27.728,0,0,0-1.032,2.7,12.1,12.1,0,0,1-.889,2.3c-.078.066-.292.239-.483.388a4.3,4.3,0,0,0-1.419,2.2c-.125.441-.125.572-.149,4.854a33.671,33.671,0,0,0,.072,4.717,1.04,1.04,0,0,0,1.234.757.91.91,0,0,0,.692-.543c.131-.25.137-.334.137-1.622v-1.36h18.6v1.24a6.641,6.641,0,0,0,.089,1.544,1.043,1.043,0,0,0,1.228.739.929.929,0,0,0,.7-.543l.131-.262v-4.514c0-4.288-.006-4.532-.119-4.967a4.36,4.36,0,0,0-1.819-2.54,1.815,1.815,0,0,1-.209-.143c0-.1-1.58-4.52-1.717-4.806a3.871,3.871,0,0,0-1.342-1.509,3.556,3.556,0,0,0-1.574-.632C36.685-375.894,28.4-375.894,27.865-375.817Zm9.189,2.147a1.812,1.812,0,0,1,1.038.781c.078.143.388.924.68,1.747s.561,1.538.578,1.592c.042.1-.31.107-6.792.107-3.81,0-6.834-.024-6.834-.054,0-.089,1.115-3.143,1.216-3.321a1.691,1.691,0,0,1,.942-.805c.292-.1.62-.107,4.592-.113C35.337-373.736,36.852-373.712,37.054-373.67Zm3.53,6.6a1.994,1.994,0,0,1,1.085,1.139l.155.4v3.965H23.22v-1.837a12.617,12.617,0,0,1,.089-2.206,2.157,2.157,0,0,1,.954-1.36c.561-.328.268-.316,8.408-.3l7.514.012Z" transform="translate(-21.078 375.875)"/><path class="a" d="M83.083-207.558a1.631,1.631,0,0,0-1.283,1.675,1.6,1.6,0,0,0,1.718,1.7,1.566,1.566,0,0,0,1.6-1.066,1.806,1.806,0,0,0-.761-2.153A2.262,2.262,0,0,0,83.083-207.558Z" transform="translate(-78.289 217.275)"/><path class="a" d="M299.083-207.558a1.631,1.631,0,0,0-1.283,1.675,1.6,1.6,0,0,0,1.718,1.7,1.566,1.566,0,0,0,1.6-1.066,1.806,1.806,0,0,0-.761-2.153A2.262,2.262,0,0,0,299.083-207.558Z" transform="translate(-281.799 217.275)"/></svg>