<svg xmlns="http://www.w3.org/2000/svg" width="25.026" height="17.534" viewBox="0 0 25.026 17.534"><defs><style>.a{fill:#656565;}</style></defs><path class="a" d="M39.23-355.707a.948.948,0,0,0-.58.617.931.931,0,0,0,.5,1.093,5.821,5.821,0,0,0,1.4.1l1.276.026.3.575.309.575-1.867,1.574L38.7-349.574l-.366-.277a8.778,8.778,0,0,0-3.059-1.349c-.214-.042-.675-.1-1.02-.131a31.7,31.7,0,0,0-3.755,0,.93.93,0,0,0-.633.628.926.926,0,0,0,.492,1.1,10.733,10.733,0,0,0,2.092.1,8.155,8.155,0,0,1,3.19.361,6.251,6.251,0,0,1,3.87,3.974,6.8,6.8,0,0,1,.314,2.306v.884h2.494l.031-1.009a14.02,14.02,0,0,1,.11-1.449,5.982,5.982,0,0,1,1.856-3.352,5.377,5.377,0,0,1,.528-.465,3.979,3.979,0,0,1,.309.57l.282.57-.361.356a4.623,4.623,0,0,0-1.36,2.63,5,5,0,0,0,1.642,4.706,5.054,5.054,0,0,0,4.638,1,4.939,4.939,0,0,0,3.535-3.791,7.832,7.832,0,0,0,0-2.039A4.939,4.939,0,0,0,50-348.041a5.988,5.988,0,0,0-2.667-.058.41.41,0,0,1-.246.016c-.031-.037-2.134-3.885-2.134-3.911,0-.005.628-.021,1.4-.031,1.328-.016,1.407-.021,1.616-.131a1.313,1.313,0,0,0,.565-.659,6.832,6.832,0,0,0,0-2.165,1.313,1.313,0,0,0-.565-.659c-.2-.1-.293-.115-.978-.115a2.131,2.131,0,0,0-.946.094,14.035,14.035,0,0,0-1.15.9c-.816.69-.967.8-1.02.732-.031-.047-.173-.293-.309-.554a1.96,1.96,0,0,0-.894-1.02l-.309-.157-1.464-.01A7.315,7.315,0,0,0,39.23-355.707Zm4.414,5.219c.157.3.293.549.3.57a2.31,2.31,0,0,1-.4.35,9.038,9.038,0,0,0-1.584,1.668,10.418,10.418,0,0,0-.575.973l-.288.565-.251-.507a9.054,9.054,0,0,0-.533-.92,3.252,3.252,0,0,1-.272-.434c.1-.1,3.263-2.8,3.284-2.8A4.04,4.04,0,0,1,43.644-350.489Zm5.606,4.194a3.15,3.15,0,0,1,2.118,1.522,3.318,3.318,0,0,1,0,3.085,3.3,3.3,0,0,1-1.313,1.255,3.83,3.83,0,0,1-1.428.34,3.373,3.373,0,0,1-2.233-.915,3.268,3.268,0,0,1-.821-2.9,4.418,4.418,0,0,1,.643-1.328l.178-.2.7,1.3c.382.716.753,1.375.821,1.464a1.112,1.112,0,0,0,.35.277.606.606,0,0,0,.5.058.869.869,0,0,0,.7-.512c.188-.382.141-.518-.675-2.05a6.9,6.9,0,0,1-.675-1.422A3.306,3.306,0,0,1,49.249-346.295Z" transform="translate(-28.573 355.769)"/><path class="a" d="M10.36-211.767a5.007,5.007,0,0,0-3.739,2.191,5.065,5.065,0,0,0-.821,2.792,4.953,4.953,0,0,0,1.726,3.812,5.054,5.054,0,0,0,4.638,1,4.939,4.939,0,0,0,3.535-3.791,7.831,7.831,0,0,0,0-2.039,5.049,5.049,0,0,0-1.36-2.536,4.883,4.883,0,0,0-3.038-1.412A3.374,3.374,0,0,0,10.36-211.767Zm1.109,1.924a3.126,3.126,0,0,1,2.259,2l.037.12H12.7c-1.067,0-1.072,0-1.323-.141a1.306,1.306,0,0,0-1.49.209,1.372,1.372,0,0,0,0,1.747,1.277,1.277,0,0,0,1.469.209c.267-.141.282-.141,1.344-.141h1.067l-.037.115a3.144,3.144,0,0,1-2.881,2.081,3.1,3.1,0,0,1-3.169-3.138,3.042,3.042,0,0,1,1.652-2.772A3.26,3.26,0,0,1,11.469-209.842Z" transform="translate(-5.8 219.321)"/></svg>