<svg xmlns="http://www.w3.org/2000/svg" width="25.044" height="20" viewBox="0 0 25.044 20"><defs><style>.a{fill:#656565;}</style></defs><path class="a" d="M36.494-393.544a2.556,2.556,0,0,0-.6.538,13.475,13.475,0,0,1-1.441,1.383,24.947,24.947,0,0,1-2.323,1.53c-.271.151-.929.538-1.456.861-1.524.919-2.02,1.467-2.4,2.641a5.179,5.179,0,0,0-.188,1.462,4.471,4.471,0,0,0,.757,2.208,1.147,1.147,0,0,1,.151.245.651.651,0,0,1-.214.151,3.021,3.021,0,0,0-.961,1c-.35.684-.355.72-.376,2.929a13.561,13.561,0,0,0,.12,2.986l.037.146-1.952-.016c-2.224-.016-2.177-.01-2.433-.449l-.146-.245-.016-4.975-.01-4.97h3.806l.089-.4a5.318,5.318,0,0,1,1.368-2.527l.282-.292-.162-.475A5.74,5.74,0,0,0,27.124-392a12.641,12.641,0,0,0-1.8-1.456,1,1,0,0,0-.846.052,14.6,14.6,0,0,0-1.54,1.227,5.793,5.793,0,0,0-1.624,2.929c-.1.433-.11.559-.125,6.552-.016,3.853,0,6.264.031,6.531a2.749,2.749,0,0,0,1.937,2.433l.339.12H43.907l.365-.125a2.74,2.74,0,0,0,1.671-1.441c.282-.59.3-.757.277-3.263-.026-2.422-.026-2.433-.3-2.976a2.711,2.711,0,0,0-1.028-1.117l-.224-.136.177-.251a4.35,4.35,0,0,0,.747-2.229,3.426,3.426,0,0,0-.245-1.6,4.409,4.409,0,0,0-2.036-2.3c-.36-.214-.783-.475-.94-.569s-.543-.324-.861-.512a21.707,21.707,0,0,1-2.511-1.7,11.551,11.551,0,0,1-1.039-1.013,6.422,6.422,0,0,0-.684-.684A.94.94,0,0,0,36.494-393.544Zm-11.166,2.412a3.843,3.843,0,0,1,1.483,2.871V-388H23.042l.031-.329a4.215,4.215,0,0,1,.522-1.707,7.251,7.251,0,0,1,1.336-1.4A4.981,4.981,0,0,1,25.328-391.132Zm11.913.245a22.128,22.128,0,0,0,4.161,2.871c.2.115.59.339.861.5a5.111,5.111,0,0,1,.773.538,2.276,2.276,0,0,1,.392,2.767,2.864,2.864,0,0,1-.966.94c-.569.287-.459.282-5.581.282-2.939,0-4.839-.021-5.012-.052A2.407,2.407,0,0,1,30-385.672a2.3,2.3,0,0,1,.579-1.232,7.558,7.558,0,0,1,1.639-1.07,20.272,20.272,0,0,0,4.281-2.944,2.972,2.972,0,0,1,.334-.318C36.839-391.237,37.022-391.08,37.241-390.887Zm6.442,9.83a.981.981,0,0,1,.6.506,11.994,11.994,0,0,1,.073,2.26c0,2.292-.005,2.313-.308,2.574-.224.188-.465.245-1.06.245h-.512v-1.19c0-1.128-.005-1.2-.115-1.42a.814.814,0,0,0-.611-.475.913.913,0,0,0-1.075.647,5.814,5.814,0,0,0-.078,1.352v1.086H38.724l-.021-1.295-.016-1.295-.2-.4c-.2-.412-.324-.543-1.185-1.305l-.444-.392-.131.1c-1.6,1.253-1.77,1.613-1.775,3.628v.955H33.075v-1.19c0-1.128-.005-1.2-.115-1.42a.814.814,0,0,0-.611-.475.913.913,0,0,0-1.075.647,5.841,5.841,0,0,0-.078,1.357v1.091l-.611-.021c-.731-.021-.887-.089-1.1-.449l-.146-.245V-380.4l.146-.245a.744.744,0,0,1,.5-.412C30.2-381.125,43.453-381.12,43.683-381.057Z" transform="translate(-21.182 393.618)"/></svg>