<svg xmlns="http://www.w3.org/2000/svg" width="22.843" height="20" viewBox="0 0 22.843 20"><defs><style>.a{fill:#656565;}</style></defs><path class="a" d="M54.891-357.775a3.964,3.964,0,0,0-2.932,2.068c-.495.971-.465.417-.465,9.225v7.807l.137.28a.809.809,0,0,0,.465.441.851.851,0,0,0,.584.119,1.03,1.03,0,0,0,.8-.572l.131-.262v-7.6c0-5.178.018-7.717.066-7.955a1.68,1.68,0,0,1,.62-1.031,1.661,1.661,0,0,1,1.138-.429,2.3,2.3,0,0,1,1.591.733l.226.2-.238.495a4.533,4.533,0,0,0-.465,2.348,4.8,4.8,0,0,0,1.394,3.3l.322.364-.155.22a1.032,1.032,0,0,0,.232,1.389.948.948,0,0,0,.858.22c.274-.036.34-.1,4.028-3.772,2.545-2.545,3.778-3.814,3.856-3.975a.881.881,0,0,0,0-.834,1.058,1.058,0,0,0-1.573-.483l-.209.143-.286-.292a5.5,5.5,0,0,0-1.555-1.061,4.146,4.146,0,0,0-1.955-.381,4.337,4.337,0,0,0-2.235.507c-.28.143-.518.262-.536.268a4.6,4.6,0,0,1-.626-.471A3.842,3.842,0,0,0,54.891-357.775Zm7.3,2.9a2.843,2.843,0,0,1,1.353.8l.256.262-2.02,2.02-2.014,2.014-.334-.381a2.767,2.767,0,0,1,.036-3.933A2.731,2.731,0,0,1,62.191-354.879Z" transform="translate(-51.494 357.824)"/><path class="a" d="M316.706-261.514a1.378,1.378,0,0,0-.906,1.335,1.372,1.372,0,0,0,1.7,1.383,1.278,1.278,0,0,0,1.091-1.222,1.382,1.382,0,0,0-.7-1.412A1.8,1.8,0,0,0,316.706-261.514Z" transform="translate(-300.05 267.314)"/><path class="a" d="M388.706-237.514a1.378,1.378,0,0,0-.906,1.335,1.372,1.372,0,0,0,1.7,1.383,1.278,1.278,0,0,0,1.091-1.222,1.382,1.382,0,0,0-.7-1.412A1.8,1.8,0,0,0,388.706-237.514Z" transform="translate(-367.759 244.744)"/><path class="a" d="M268.706-213.514a1.378,1.378,0,0,0-.906,1.335,1.372,1.372,0,0,0,1.7,1.383,1.278,1.278,0,0,0,1.091-1.222,1.382,1.382,0,0,0-.7-1.412A1.8,1.8,0,0,0,268.706-213.514Z" transform="translate(-254.91 222.174)"/><path class="a" d="M340.706-189.514a1.378,1.378,0,0,0-.906,1.335,1.372,1.372,0,0,0,1.7,1.383,1.278,1.278,0,0,0,1.091-1.222,1.382,1.382,0,0,0-.7-1.412A1.8,1.8,0,0,0,340.706-189.514Z" transform="translate(-322.619 199.604)"/><path class="a" d="M220.706-165.514a1.378,1.378,0,0,0-.906,1.335,1.372,1.372,0,0,0,1.7,1.383,1.278,1.278,0,0,0,1.091-1.222,1.382,1.382,0,0,0-.7-1.412A1.8,1.8,0,0,0,220.706-165.514Z" transform="translate(-209.77 177.035)"/><path class="a" d="M292.706-141.514a1.378,1.378,0,0,0-.906,1.335,1.372,1.372,0,0,0,1.7,1.383,1.278,1.278,0,0,0,1.091-1.222,1.382,1.382,0,0,0-.7-1.412A1.8,1.8,0,0,0,292.706-141.514Z" transform="translate(-277.48 154.465)"/><path class="a" d="M244.706-93.514a1.378,1.378,0,0,0-.906,1.335,1.372,1.372,0,0,0,1.7,1.383,1.278,1.278,0,0,0,1.091-1.222,1.382,1.382,0,0,0-.7-1.412A1.8,1.8,0,0,0,244.706-93.514Z" transform="translate(-232.34 109.325)"/></svg>