<svg xmlns="http://www.w3.org/2000/svg" width="19.984" height="20" viewBox="0 0 19.984 20"><defs><style>.a{fill:#656565;}</style></defs><path class="a" d="M25.737-409.582a3.571,3.571,0,0,0-1.862,1.043,9.683,9.683,0,0,0-2.076,6.409c0,3.625,1.492,6.712,3.557,7.359a4.437,4.437,0,0,0,.871.136l.532.031.016,2.013c.016,1.924.021,2.023.125,2.248a1.111,1.111,0,0,0,.558.584l.219.12,6.389.016c3.515.01,6.514,0,6.66-.016a1.188,1.188,0,0,0,.918-.647l.141-.287V-396.7c0-5.08-.016-6.248-.078-6.8a8.459,8.459,0,0,0-2.086-5.074,3.525,3.525,0,0,0-1.4-.913l-.37-.13-5.919-.005C28.674-409.623,25.889-409.608,25.737-409.582Zm8.584,2.185a11.712,11.712,0,0,0-.986,7.88,9.863,9.863,0,0,0,1.033,2.743l.162.276H26.009l-.261-.125a3.761,3.761,0,0,1-1.4-1.789,10.5,10.5,0,0,1-.657-4.375,11.177,11.177,0,0,1,.428-2.441,4.186,4.186,0,0,1,1.684-2.435c.2-.094.443-.1,4.469-.1H34.53Zm3.374-.287a4.652,4.652,0,0,1,1.888,2.947,10.84,10.84,0,0,1,.089,4.866,5.91,5.91,0,0,1-1.653,3.113c-.6.438-1.1.3-1.716-.469-1.194-1.5-1.684-4.177-1.241-6.78.292-1.69,1.132-3.259,1.95-3.651A.723.723,0,0,1,37.7-407.683Zm2.211,13.95v2.242H28.642v-3.124l4.6-.016,4.6-.016.391-.141a3.915,3.915,0,0,0,1.356-.9c.156-.162.292-.292.3-.292S39.907-394.969,39.907-393.733Z" transform="translate(-21.8 409.619)"/><path class="a" d="M304.6-301.764c-.624.312-1.051,1.784-.9,3.06a2.419,2.419,0,0,0,.972,1.958c.225.109.261.109.522-.029a1.9,1.9,0,0,0,.8-1.109,6.654,6.654,0,0,0-.029-2.857,1.712,1.712,0,0,0-.79-1.03C304.879-301.895,304.872-301.895,304.6-301.764Z" transform="translate(-289.532 306.979)"/></svg>