<svg xmlns="http://www.w3.org/2000/svg" width="13.125" height="15" viewBox="0 0 13.125 15"><defs><style>.a{fill:#fff;}</style></defs><path class="a" d="M3.961.519A.934.934,0,0,1,4.8,0H8.326a.934.934,0,0,1,.838.519l.211.419h2.813a.938.938,0,0,1,0,1.875H.938a.938.938,0,0,1,0-1.875H3.75ZM.938,3.75h11.25v9.375A1.877,1.877,0,0,1,10.313,15h-7.5A1.877,1.877,0,0,1,.938,13.125ZM3.75,5.625a.47.47,0,0,0-.469.469v6.562a.469.469,0,0,0,.938,0V6.094A.47.47,0,0,0,3.75,5.625Zm2.813,0a.47.47,0,0,0-.469.469v6.562a.469.469,0,0,0,.938,0V6.094A.47.47,0,0,0,6.563,5.625Zm2.813,0a.47.47,0,0,0-.469.469v6.562a.469.469,0,1,0,.937,0V6.094A.47.47,0,0,0,9.375,5.625Z"/></svg>