<svg xmlns="http://www.w3.org/2000/svg" width="17.439" height="20" viewBox="0 0 17.439 20"><defs><style>.a{fill:#656565;}</style></defs><path class="a" d="M29.415-417.547a4.869,4.869,0,0,0-2.223.835,4.813,4.813,0,0,0-1.842,2.426c-.287.84-.287.84-.313,3.877l-.026,2.828-.136.031a2.381,2.381,0,0,0-1.372.746,3.389,3.389,0,0,0-.684,1.4,3,3,0,0,0-.219,1.237,1.587,1.587,0,0,0,.157.913,1.982,1.982,0,0,0,.757.9l.256.162v1.837c0,2.077.021,2.244.339,2.526a.918.918,0,0,0,1.367-.136l.146-.188.016-1.9.016-1.894h11.26l.016,1.837c.016,1.811.016,1.847.136,2.051a.876.876,0,0,0,1.383.24c.3-.277.3-.25.3-2.369v-1.946l.2-.115a2.17,2.17,0,0,0,1.085-2.1,10.344,10.344,0,0,0-.689-2.082,2.205,2.205,0,0,0-1.644-1.117l-.136-.031-.031-2.75c-.031-2.938-.052-3.2-.313-3.955A4.934,4.934,0,0,0,34.2-417.3a6.735,6.735,0,0,0-2.713-.277C30.531-417.583,29.6-417.573,29.415-417.547Zm2.807,5.9v4.07H30.291v-8.14h1.931Zm-3.757.209v3.861H26.842l.021-2.729c.016-1.894.042-2.8.083-2.959a4.416,4.416,0,0,1,.647-1.252,4.446,4.446,0,0,1,.856-.783C28.46-415.3,28.465-413.565,28.465-411.442Zm5.98-3.6a2.818,2.818,0,0,1,1.059,1.529l.13.423.021,2.75.021,2.755H34.048v-3.867a28.7,28.7,0,0,1,.068-3.825C34.147-415.251,34.3-415.141,34.445-415.037Zm3.214,9.424a6.334,6.334,0,0,1,.511,1.487.332.332,0,0,1-.089.23c-.078.057-1.3.068-6.783.073-6.627,0-6.695,0-6.8-.1a.351.351,0,0,1-.1-.183,7.557,7.557,0,0,1,.537-1.477l.1-.115h6.272C37.215-405.7,37.586-405.7,37.659-405.613Z" transform="translate(-22.6 417.577)"/></svg>