<svg xmlns="http://www.w3.org/2000/svg" width="23.64" height="19.667" viewBox="0 0 23.64 19.667">
  <path id="Path_3" data-name="Path 3" d="M3.79.834C4.572.656,5.359.505,6.146.387A37.234,37.234,0,0,1,11.78.009a42.821,42.821,0,0,1,5.628.356c.922.124,1.838.3,2.755.518L20.157.9a4.143,4.143,0,0,1,2.264,1.412L11.79,8.656.874,2.689A4.154,4.154,0,0,1,3.79.834ZM23.295,4.2c.022.113.038.232.049.345h.016c.038.4.07.792.1,1.191.1,1.353.162,2.717.167,4.07s-.043,2.717-.129,4.076c-.022.334-.043.668-.075,1a4.163,4.163,0,0,1-3.073,3.828h0l-.135.032h-.005c-.916.221-1.838.4-2.76.539a39.981,39.981,0,0,1-5.666.394A37.707,37.707,0,0,1,6.119,19.3c-.889-.129-1.779-.307-2.663-.512l.005-.032A4.16,4.16,0,0,1,.227,15.185l-.038-.016c-.032-.415-.065-.83-.086-1.245-.075-1.359-.119-2.717-.113-4.07S.044,7.136.13,5.778c.022-.323.043-.647.07-.965,0-.043.005-.086.005-.129l11.623,6.356L23.284,4.2Z" transform="translate(0.011 -0.009)" fill="#fff" fill-rule="evenodd"/>
</svg>
