<svg xmlns="http://www.w3.org/2000/svg" width="20.203" height="15.713" viewBox="0 0 20.203 15.713"><defs><style>.a{fill:#707070;}</style></defs><path class="a" d="M18.519,32H1.684A1.684,1.684,0,0,0,0,33.684V46.03a1.684,1.684,0,0,0,1.684,1.684H18.519A1.684,1.684,0,0,0,20.2,46.03V33.684A1.684,1.684,0,0,0,18.519,32ZM6.173,35.367a2.245,2.245,0,1,1-2.245,2.245A2.247,2.247,0,0,1,6.173,35.367ZM10.1,43.673a.736.736,0,0,1-.786.673H3.03a.736.736,0,0,1-.786-.673V43A2.209,2.209,0,0,1,4.6,40.979h.175a3.613,3.613,0,0,0,2.792,0h.175A2.209,2.209,0,0,1,10.1,43Zm7.857-1.852a.281.281,0,0,1-.281.281H12.627a.281.281,0,0,1-.281-.281V41.26a.281.281,0,0,1,.281-.281h5.051a.281.281,0,0,1,.281.281Zm0-2.245a.281.281,0,0,1-.281.281H12.627a.281.281,0,0,1-.281-.281v-.561a.281.281,0,0,1,.281-.281h5.051a.281.281,0,0,1,.281.281Zm0-2.245a.281.281,0,0,1-.281.281H12.627a.281.281,0,0,1-.281-.281V36.77a.281.281,0,0,1,.281-.281h5.051a.281.281,0,0,1,.281.281Z" transform="translate(0 -32)"/></svg>