<svg xmlns="http://www.w3.org/2000/svg" width="35" height="35" viewBox="0 0 35 35">
  <g id="Group_322" data-name="Group 322" transform="translate(-20 -839)">
    <g id="Group_192" data-name="Group 192">
      <path id="Intersection_51" data-name="Intersection 51" d="M8.235,35A8.235,8.235,0,0,1,0,26.764V8.235A8.235,8.235,0,0,1,8.235,0H26.765A8.235,8.235,0,0,1,35,8.235V26.764A8.235,8.235,0,0,1,26.765,35Z" transform="translate(20 839)" fill="#d1d1d1"/>
    </g>
    <g id="Layer_x0020_1" transform="translate(28.005 848.01)">
      <path id="Path_1262" data-name="Path 1262" d="M15.865,10.292a8.239,8.239,0,0,1-12.671,0A1.81,1.81,0,1,0,.412,12.608a11.873,11.873,0,0,0,18.237,0,1.81,1.81,0,0,0-2.783-2.315ZM3.5,4.817A2.413,2.413,0,1,0,1.083,2.4,2.411,2.411,0,0,0,3.5,4.817Zm12.067,0A2.413,2.413,0,1,0,13.15,2.4,2.411,2.411,0,0,0,15.564,4.817Z" transform="translate(0)" fill="#a8a8a8"/>
    </g>
  </g>
</svg>
