<svg xmlns="http://www.w3.org/2000/svg" width="17.557" height="20.065" viewBox="0 0 17.557 20.065"><defs><style>.a{fill:#6257a0;}</style></defs><path class="a" d="M0,18.184a1.882,1.882,0,0,0,1.881,1.881H15.676a1.882,1.882,0,0,0,1.881-1.881V7.524H0ZM12.541,10.5a.472.472,0,0,1,.47-.47h1.568a.472.472,0,0,1,.47.47V12.07a.472.472,0,0,1-.47.47H13.011a.472.472,0,0,1-.47-.47Zm0,5.016a.472.472,0,0,1,.47-.47h1.568a.472.472,0,0,1,.47.47v1.568a.472.472,0,0,1-.47.47H13.011a.472.472,0,0,1-.47-.47ZM7.524,10.5a.472.472,0,0,1,.47-.47H9.562a.472.472,0,0,1,.47.47V12.07a.472.472,0,0,1-.47.47H7.995a.472.472,0,0,1-.47-.47Zm0,5.016a.472.472,0,0,1,.47-.47H9.562a.472.472,0,0,1,.47.47v1.568a.472.472,0,0,1-.47.47H7.995a.472.472,0,0,1-.47-.47ZM2.508,10.5a.472.472,0,0,1,.47-.47H4.546a.472.472,0,0,1,.47.47V12.07a.472.472,0,0,1-.47.47H2.978a.472.472,0,0,1-.47-.47Zm0,5.016a.472.472,0,0,1,.47-.47H4.546a.472.472,0,0,1,.47.47v1.568a.472.472,0,0,1-.47.47H2.978a.472.472,0,0,1-.47-.47ZM15.676,2.508H13.795V.627A.629.629,0,0,0,13.168,0H11.914a.629.629,0,0,0-.627.627V2.508H6.27V.627A.629.629,0,0,0,5.643,0H4.389a.629.629,0,0,0-.627.627V2.508H1.881A1.882,1.882,0,0,0,0,4.389V6.27H17.557V4.389A1.882,1.882,0,0,0,15.676,2.508Z"/></svg>