<svg xmlns="http://www.w3.org/2000/svg" width="20.015" height="17.513" viewBox="0 0 20.015 17.513"><defs><style>.a{fill:#707070;}</style></defs><path class="a" d="M20.015,36.378V47.636a1.877,1.877,0,0,1-1.876,1.876H1.876A1.877,1.877,0,0,1,0,47.636V36.378A1.877,1.877,0,0,1,1.876,34.5h3.44L5.8,33.216A1.874,1.874,0,0,1,7.552,32h4.906a1.874,1.874,0,0,1,1.755,1.216L14.7,34.5h3.44A1.877,1.877,0,0,1,20.015,36.378ZM14.7,42.007A4.691,4.691,0,1,0,10.007,46.7,4.695,4.695,0,0,0,14.7,42.007Zm-1.251,0a3.44,3.44,0,1,1-3.44-3.44A3.445,3.445,0,0,1,13.447,42.007Z" transform="translate(0 -32)"/></svg>