<svg id="Layer_x0020_1" xmlns="http://www.w3.org/2000/svg" width="23.395" height="24.344" viewBox="0 0 23.395 24.344">
  <path id="Path_1" data-name="Path 1" d="M3.763.826C4.539.649,5.315.5,6.1.385A36.681,36.681,0,0,1,11.671.009a42.717,42.717,0,0,1,5.57.355c.913.122,1.821.3,2.729.512L19.965.9a4.112,4.112,0,0,1,3.15,3.6h.02c.036.391.071.786.1,1.177.1,1.339.162,2.688.167,4.033s-.046,2.688-.127,4.033c-.02.33-.046.659-.071.989a4.119,4.119,0,0,1-3.038,3.789h0l-.132.03h-.005c-.908.218-1.816.4-2.729.533-.487.071-.979.132-1.471.183l-3.363,4.758-.015-.005a.9.9,0,0,1-1.441-.051L7.674,19.29c-.533-.051-1.06-.117-1.593-.193-.883-.127-1.76-.3-2.638-.507l.005-.03a4.113,4.113,0,0,1-3.2-3.53l-.041-.015c-.03-.411-.061-.822-.086-1.233C.045,12.437,0,11.093.01,9.749S.06,7.06.147,5.716c.02-.32.046-.639.071-.959A4.113,4.113,0,0,1,3.763.821ZM6.355,13.452a1.228,1.228,0,0,1,0-2.455h7.421a1.228,1.228,0,0,1,0,2.455H6.355Zm0-5.1a1.228,1.228,0,1,1,0-2.455H16.9a1.228,1.228,0,1,1,0,2.455H6.355Z" transform="translate(-0.009 -0.009)" fill="#18aa1b" fill-rule="evenodd"/>
</svg>
