<svg xmlns="http://www.w3.org/2000/svg" width="15.619" height="12.203" viewBox="0 0 15.619 12.203"><defs><style>.a{fill:#3cb554;}</style></defs><path class="a" d="M0,59.393v-.488a.732.732,0,0,1,.732-.732H11.714V56.709a.733.733,0,0,1,1.25-.518l2.44,2.44a.732.732,0,0,1,0,1.035l-2.44,2.44a.733.733,0,0,1-1.25-.518V60.126H.732A.732.732,0,0,1,0,59.393ZM14.887,64.03H3.9V62.566a.733.733,0,0,0-1.25-.518l-2.44,2.44a.732.732,0,0,0,0,1.035l2.44,2.44a.733.733,0,0,0,1.25-.518V65.983H14.887a.732.732,0,0,0,.732-.732v-.488A.732.732,0,0,0,14.887,64.03Z" transform="translate(0 -55.976)"/></svg>