<svg xmlns="http://www.w3.org/2000/svg" width="20.043" height="17.816" viewBox="0 0 20.043 17.816"><defs><style>.a{fill:#707070;}</style></defs><path class="a" d="M7.592,14.759a.386.386,0,0,0-.354-.227.38.38,0,0,0-.349.215l-.267.534A.557.557,0,0,1,5.6,15.208l-.586-1.756-.369,1.109a1.5,1.5,0,0,1-1.427,1.028H2.784a.557.557,0,0,1,0-1.114h.431a.39.39,0,0,0,.37-.267l.633-1.9a.835.835,0,0,1,1.585,0l.483,1.449a1.562,1.562,0,0,1,2.3.493.4.4,0,0,0,.326.218V11.61l4.454-4.422V5.568H8.63a.838.838,0,0,1-.835-.835V0H.835A.833.833,0,0,0,0,.835V16.981a.833.833,0,0,0,.835.835H12.527a.833.833,0,0,0,.835-.835V15.589l-4.454,0A1.494,1.494,0,0,1,7.592,14.759Zm5.77-10.517a.832.832,0,0,0-.244-.588L9.712.244A.835.835,0,0,0,9.12,0H8.908V4.454h4.454Zm-3.341,7.831v2.4h2.4l5.626-5.664L15.686,6.449Zm9.762-6.251L18.675,4.714a.886.886,0,0,0-1.253,0l-.948.948,2.362,2.362.948-.948a.886.886,0,0,0,0-1.253Z"/></svg>