<svg xmlns="http://www.w3.org/2000/svg" width="19.052" height="19.44" viewBox="0 0 19.052 19.44"><defs><style>.a{fill:#fff;}</style></defs><g transform="translate(36)"><g transform="translate(-36 0)"><path class="a" d="M521.19,426.42h9.155a11.164,11.164,0,0,1,.177,1.988,9.479,9.479,0,0,1-2.9,7.144h-3.141v-2.439a4.471,4.471,0,0,0,1.94-2.934H521.19Z" transform="translate(-511.47 -418.467)"/><path class="a" d="M55.43,620.21h3.247a5.864,5.864,0,0,0,8.73,3.079l3.141,2.439a9.279,9.279,0,0,1-6.433,2.355,9.716,9.716,0,0,1-8.686-5.355V620.21Z" transform="translate(-54.396 -608.643)"/><path class="a" d="M1.034,287.13H4.281v2.518a5.746,5.746,0,0,0,0,3.694l-3.247,2.518a9.731,9.731,0,0,1,0-8.73Z" transform="translate(0 -281.775)"/><path class="a" d="M64.126,3.866A5.251,5.251,0,0,1,67.842,5.32L70.63,2.532A9.342,9.342,0,0,0,64.126,0,9.716,9.716,0,0,0,55.44,5.355l3.247,2.518a5.793,5.793,0,0,1,5.439-4.007h0Z" transform="translate(-54.406 0)"/></g></g></svg>