<svg id="Layer_x0020_1" xmlns="http://www.w3.org/2000/svg" width="19.275" height="16.036" viewBox="0 0 19.275 16.036">
  <path id="Path_3" data-name="Path 3" d="M3.088.682C3.726.537,4.367.414,5.009.317A30.359,30.359,0,0,1,9.6.009,34.914,34.914,0,0,1,14.191.3c.752.1,1.5.246,2.246.422l0,.018a3.378,3.378,0,0,1,1.846,1.152L9.611,7.06.71,2.194A3.387,3.387,0,0,1,3.088.682Zm15.9,2.743c.018.092.031.189.04.281h.013c.031.325.057.646.084.971.084,1.1.132,2.215.136,3.319s-.035,2.215-.105,3.323c-.018.273-.035.545-.062.818a3.394,3.394,0,0,1-2.505,3.121h0l-.11.026h0c-.747.18-1.5.33-2.25.44a32.6,32.6,0,0,1-4.62.321,30.744,30.744,0,0,1-4.62-.308c-.725-.105-1.451-.251-2.171-.418l0-.026a3.391,3.391,0,0,1-2.637-2.91l-.031-.013c-.026-.338-.053-.677-.07-1.015C.02,10.246-.015,9.139-.01,8.035S.033,5.82.1,4.712c.018-.264.035-.527.057-.787,0-.035,0-.07,0-.105L9.642,9l9.34-5.573Z" transform="translate(0.011 -0.009)" fill="#b2b2b2" fill-rule="evenodd"/>
</svg>
