<?xml version="1.0" encoding="UTF-8"?>
<!DOCTYPE svg PUBLIC "-//W3C//DTD SVG 1.1//EN" "http://www.w3.org/Graphics/SVG/1.1/DTD/svg11.dtd">
<!-- Creator: CorelDRAW -->
<svg xmlns="http://www.w3.org/2000/svg" xml:space="preserve" width="13.2872mm" height="13.2469mm" version="1.1" style="shape-rendering:geometricPrecision; text-rendering:geometricPrecision; image-rendering:optimizeQuality; fill-rule:evenodd; clip-rule:evenodd"
viewBox="0 0 1327.7 1323.67"
 xmlns:xlink="http://www.w3.org/1999/xlink"
 xmlns:xodm="http://www.corel.com/coreldraw/odm/2003">
 <defs>
  <style type="text/css">
   <![CDATA[
    .fil0 {fill:white}
   ]]>
  </style>
 </defs>
 <g id="Layer_x0020_1">
  <metadata id="CorelCorpID_0Corel-Layer"/>
  <g id="_105553190104928">
   <path class="fil0" d="M206.06 318.78l1.02 0c-10.15,-60.9 -50.75,-222.3 -205.04,-222.3 0,0 -17.26,-93.39 48.72,-96.43 64.96,-2.03 243.61,60.9 292.34,317.71l884.11 0 0 0 1.02 0c54.81,0 99.47,44.67 99.47,99.47 0,4.06 0,9.13 -1.02,13.2l1.02 0 -46.69 385.71 -3.05 0c-15.23,102.52 -102.52,181.69 -209.1,185.76l-1.02 2.03 -541.02 -3.05c-5.08,0 -9.13,0 -14.21,0 -103.53,0 -189.81,-71.06 -212.15,-167.48l-2.03 0 -54.81 -300.46 0 0 -35.52 -192.86 0 0 -4.06 -22.33 2.02 1.03zm389.78 472c-29.44,0 -52.78,-23.34 -52.78,-52.78 0,-29.44 23.34,-52.78 52.78,-52.78l393.84 0c29.44,0 52.78,23.34 52.78,52.78 0,29.44 -23.34,52.78 -52.78,52.78l-393.84 0zm0 -190.82c-29.44,0 -52.78,-23.34 -52.78,-52.78 0,-29.44 23.34,-52.78 52.78,-52.78l393.84 0c29.44,0 52.78,23.34 52.78,52.78 0,29.44 -23.34,52.78 -52.78,52.78l-393.84 0z"/>
   <circle class="fil0" cx="515.65" cy="1219.12" r="104.55"/>
   <circle class="fil0" cx="979.53" cy="1219.12" r="104.55"/>
  </g>
 </g>
</svg>
