<svg id="Layer_x0020_1" xmlns="http://www.w3.org/2000/svg" width="372" height="182.933" viewBox="0 0 372 182.933">
  <g id="Layer_x0020_1-2" data-name="Layer_x0020_1" transform="translate(0 -0.01)" opacity="0.8">
    <g id="_105553177225920" transform="translate(0 0.01)">
      <path id="Path_660" data-name="Path 660" d="M74.8,174.5c.018.3.041.6.064.9a68.589,68.589,0,0,0,.929,6.978s0,0,0,.008a.062.062,0,0,1,0,.011l.033.177s0,.005,0,.008a.031.031,0,0,1,0,.008l81.352-.156,211.1-.4s28.005-20.978,37.133-54.051c.008-.027.016-.055.022-.083a76.713,76.713,0,0,0,2.677-25.171c-.005-.088-.011-.178-.018-.265A80.288,80.288,0,0,0,402.756,78.7a95.961,95.961,0,0,0-5.8-12.326q-.79-1.433-1.661-2.8c-18.86-29.538-63.737-36.394-77.632-30.061C298.782,42.123,273.733,18.873,219.6,2.911c-24.754-7.3-68.537-1.107-92.277,21.818-.027.025-.053.049-.079.076-15.2,14.725-22.137,36.331-10.491,65.672.012.03.025.061.038.092s.013.034.02.051c11.337,28.446-11.592,34.5-27.849,49.147-.081.072-.161.144-.24.221a52.563,52.563,0,0,0-4.715,4.834q-.469.55-.923,1.12a38.36,38.36,0,0,0-5,8.122c-.193.429-.38.865-.554,1.307a38.069,38.069,0,0,0-1.966,6.546,43.771,43.771,0,0,0-.851,7.561q-.081,2.4.09,5.019Z" transform="translate(-69.825 -0.01)" fill="#ebf3fa"/>
      <path id="Path_661" data-name="Path 661" d="M461.084,2048.918s-16.281,14.958-39.182,7.931-35.742-14.431-56.432-10.3-41.26,20.925-54.325,14.66-55.643-19.179-75.354-1.684-17.382,35.3-17.382,35.3H463.347Z" transform="translate(-204.116 -1912.268)" fill="#ccdfed"/>
      <path id="Path_662" data-name="Path 662" d="M634.274,446.6l.208.027,288.643,37.329a76.707,76.707,0,0,0,2.677-25.171c-.005-.089-.011-.178-.018-.266L644.937,380.862l-.042-.012c-15.328,14.726-22.338,36.358-10.62,65.75Z" transform="translate(-587.515 -356.068)" fill="#f8fbff"/>
      <rect id="Rectangle_177" data-name="Rectangle 177" width="33.543" height="60.546" transform="translate(234.401 122.101)" fill="#fff3e9"/>
      <path id="Path_663" data-name="Path 663" d="M3949.05,1489.89l14.147,29.129h42.983l-22.294-29.129Z" transform="translate(-3692.082 -1392.942)" fill="#ed9f4a"/>
      <path id="Path_664" data-name="Path 664" d="M4139.759,1491.54l22.41,29.022h-1.278v56.567H4117.71v-59.606Z" transform="translate(-3849.766 -1394.485)" fill="#f9ddbf"/>
      <path id="Path_665" data-name="Path 665" d="M4375.436,1713.71h-3.066a4.309,4.309,0,0,0-4.31,4.309v15.354h11.829v-15.21a4.455,4.455,0,0,0-4.454-4.453Z" transform="translate(-4083.826 -1602.198)" fill="#efcdaf"/>
      <path id="Path_666" data-name="Path 666" d="M3530.43,1520.634h39.015l23.06-30.744-12.982,0-25.36,0Z" transform="translate(-3300.702 -1392.942)" fill="#ed9f4a"/>
      <path id="Path_667" data-name="Path 667" d="M3530.43,1520.681h7.149l41.944-30.741-25.36,0Z" transform="translate(-3300.702 -1392.989)" fill="#e58638"/>
      <path id="Path_668" data-name="Path 668" d="M4528.561,2062.54l10.073,20.738h30.6l-15.953-20.661Z" transform="translate(-4233.882 -1928.329)" fill="#ed9f4a"/>
      <path id="Path_669" data-name="Path 669" d="M4677.177,2063.72l15.953,20.662h0v15.611a32.318,32.318,0,0,1-8.6,4.414,38.656,38.656,0,0,1-11.288,2.1s-.171.035-.511.084H4662.6v-22.206h-.065Z" transform="translate(-4359.135 -1929.432)" fill="#f9ddbf"/>
      <path id="Path_670" data-name="Path 670" d="M4272.93,2381.231v18.052q2.769.808,5.354,1.439a110.485,110.485,0,0,0,15.436,2.714h5.067V2381.23h-25.857Z" transform="translate(-3994.886 -2226.281)" fill="#fff3e9"/>
      <path id="Path_671" data-name="Path 671" d="M4229.28,2085.589h27.776l16.418-21.889-8.275,0-19.024,0Z" transform="translate(-3954.077 -1929.413)" fill="#ed9f4a"/>
      <path id="Path_672" data-name="Path 672" d="M4809.6,2361.115v17.6h1.064c.339-.05.513-.084.513-.084a38.648,38.648,0,0,0,11.287-2.1v-15.215a6.541,6.541,0,0,0-6.54-6.532h0a6.327,6.327,0,0,0-6.324,6.326Z" transform="translate(-4496.636 -2201.562)" fill="#efcdaf"/>
      <path id="Path_673" data-name="Path 673" d="M4887.759,2218.45a1.439,1.439,0,1,1-1.438,1.439,1.439,1.439,0,0,1,1.438-1.439Z" transform="translate(-4568.362 -2074.094)" fill="#efcdaf"/>
      <path id="Path_674" data-name="Path 674" d="M4229.28,2085.618h5.272l30.647-21.887-19.024,0Z" transform="translate(-3954.077 -1929.442)" fill="#e58638"/>
      <path id="Path_675" data-name="Path 675" d="M2045.04,2364.37c22.162-6.571,49.028-12.61,71.1-7.325s30.55,12.417,54.785-3.986c5.3-3.591,9.621-4.95,13.507-5.013.248-2.282,1.162-6.323,4.515-6.574,3.432-.258-.62,4.2-3.045,6.611,13.049.869,21.882,15.682,49.281,6.333a23.448,23.448,0,0,1,12.649-.462c2.581-5.7,10.231-21.177,16.558-19.562s-9.334,15.015-15.278,19.867q1.059.274,2.093.611c3.6-2.657,10.343-6.94,14.2-5.057,3.764,1.84-5.676,4.473-11.824,5.914a54.727,54.727,0,0,1,14.308,8.635l-222.842.007Z" transform="translate(-1911.968 -2182.382)" fill="#a8d29f"/>
      <path id="Path_676" data-name="Path 676" d="M3171.4,2350.182h0c.013-3.328,5.049-6.82,5.049-6.82a10,10,0,0,0-3.093,1.054,16.794,16.794,0,0,1,3.367-1.4,15.334,15.334,0,0,1,3.848-.962c.161-.046-2.863-.413-2.863-.413l3.63.243s3.264-.4,5.646-.645,8.91.745,8.91.745a15.822,15.822,0,0,0-2.7-.745c3.055.31,7.544,1.145,7.551,1.147,2.606.172,4.337.324,4.337.324l1.578,28.383s-26.248-.137-29.959,0-5.635-5.222-6.459-11.544a20.312,20.312,0,0,1,1.159-9.371Z" transform="translate(-2963.819 -2188.861)" fill="#edbd77"/>
      <path id="Path_677" data-name="Path 677" d="M3515.342,2361.587s8.452-.643,13.812,6.16a9.363,9.363,0,0,1,.553.794,6.535,6.535,0,0,0-.724-1.948c1.1.915,1.482,3.413,1.482,3.413h0a14.027,14.027,0,0,1,.95,3.686c.665.816,1.234,1.467,1.234,1.467l-1.191-1.089a21.282,21.282,0,0,1-.615,7.358,2.3,2.3,0,0,1,1.463.122,2.4,2.4,0,0,0-1.526.111,20.614,20.614,0,0,1-.729,2.184,28.288,28.288,0,0,1-.939,3.432,15.725,15.725,0,0,0,.378-2.167c-1.5,3.061-3.726,5.226-6.311,5.248-7.01.06-15.642-1.016-17.51-10.167s2.046-18.373,9.673-18.6Z" transform="translate(-3277.12 -2207.902)" fill="#ffcf83"/>
      <path id="Path_678" data-name="Path 678" d="M3870.633,2756.69a3.822,3.822,0,0,1-.128.384C3870.5,2757.1,3870.552,2756.951,3870.633,2756.69Z" transform="translate(-3618.647 -2577.31)" fill="#ffcf83"/>
      <path id="Path_679" data-name="Path 679" d="M3561.5,2437.1a12.123,12.123,0,0,0,6.28-1.55,9.365,9.365,0,0,0,4.191-6.333c1.059-4.9.538-8.923-1.55-11.957-1.95-2.833-5.242-4.677-9.521-5.335a7.5,7.5,0,0,0-7.23,2.7c-2.657,3.193-3.432,8.586-1.86,13.115,1.107,3.2,4.065,5.177,7.911,5.289h.332c3.875,0,7.367-1.981,8.566-4.891a9.126,9.126,0,0,0-.178-8.172c-1.359-2.337-3.924-3.859-7.222-4.284a5.257,5.257,0,0,0-5.425,2.24,8.866,8.866,0,0,0-.521,8.113c1.029,1.8,3.875,3.188,6.345,3.1a4.165,4.165,0,0,0,3.834-2.325,5.192,5.192,0,0,0-.159-5.229,3.891,3.891,0,0,0-3.269-1.851,2.2,2.2,0,0,0-2.033,2.172c-.074.843.212,1.779.9,1.94,1.287.3,1.742-.4,1.761-.432,0,0,.694-1.146-.169-1.312-.989-.188-.729.579-.729.579-.014.021.245,1.06-.781.819-.423-.1-.7-.785-.633-1.565a1.842,1.842,0,0,1,1.7-1.85,3.518,3.518,0,0,1,2.955,1.7,4.84,4.84,0,0,1,.135,4.879,3.828,3.828,0,0,1-3.528,2.123c-2.352.081-5.057-1.226-6.026-2.923a8.473,8.473,0,0,1,.509-7.741,4.952,4.952,0,0,1,5.083-2.085c3.188.409,5.66,1.869,6.962,4.11a8.772,8.772,0,0,1,.157,7.86c-1.179,2.864-4.7,4.78-8.556,4.668-3.694-.11-6.532-1.993-7.588-5.051-1.528-4.418-.789-9.67,1.8-12.773a7.161,7.161,0,0,1,6.906-2.576c4.179.642,7.39,2.435,9.283,5.186,2.028,2.946,2.53,6.876,1.491,11.679a9.012,9.012,0,0,1-4.029,6.1c-4.188,2.563-10.794,1.012-10.85,1l.748.4a17.575,17.575,0,0,0,4,.461h.013Z" transform="translate(-3319.933 -2254.881)" fill="#edbd77"/>
      <path id="Path_680" data-name="Path 680" d="M2493.5,2225.924c.017-4.238,6.43-8.687,6.43-8.687-1.106-.087-3.939,1.341-3.939,1.341.758-.671,4.289-1.779,4.289-1.779,1.138-.729,4.7-1.167,4.9-1.226s-3.647-.525-3.647-.525l4.625.309s4.157-.514,7.2-.82,11.349.948,11.349.948a20.145,20.145,0,0,0-3.442-.948c3.892.394,9.61,1.459,9.617,1.46,3.322.222,5.523.414,5.523.414l2.013,36.156s-33.436-.175-38.161,0-7.177-6.651-8.227-14.7a25.758,25.758,0,0,1,1.471-11.94Z" transform="translate(-2329.697 -2070.392)" fill="#edbd77"/>
      <path id="Path_681" data-name="Path 681" d="M2931.475,2240.5s10.764-.818,17.592,7.846a11.423,11.423,0,0,1,.706,1.006,8.3,8.3,0,0,0-.922-2.476c1.4,1.167,1.882,4.345,1.882,4.345h0a17.807,17.807,0,0,1,1.21,4.7c.851,1.041,1.57,1.869,1.57,1.869L2952,2256.4a27.128,27.128,0,0,1-.784,9.373,2.927,2.927,0,0,1,1.862.156,3.035,3.035,0,0,0-1.943.146,26.28,26.28,0,0,1-.929,2.787,36.728,36.728,0,0,1-1.193,4.356,20.006,20.006,0,0,0,.479-2.747c-1.916,3.9-4.746,6.653-8.044,6.682-8.927.077-19.928-1.295-22.3-12.954s2.617-23.4,12.331-23.7Z" transform="translate(-2728.647 -2094.693)" fill="#ffcf83"/>
      <path id="Path_682" data-name="Path 682" d="M3384.219,2743.561a4.518,4.518,0,0,1-.166.5C3384.038,2744.094,3384.105,2743.9,3384.219,2743.561Z" transform="translate(-3163.847 -2565.035)" fill="#ffcf83"/>
      <path id="Path_683" data-name="Path 683" d="M2990.427,2336.689a15.4,15.4,0,0,0,8-1.978,11.937,11.937,0,0,0,5.338-8.064c1.35-6.244.688-11.367-1.969-15.227-2.483-3.608-6.677-5.958-12.128-6.8a9.558,9.558,0,0,0-9.21,3.432c-3.391,4.066-4.365,10.937-2.369,16.705,1.41,4.077,5.177,6.595,10.075,6.737h.419c4.934,0,9.383-2.522,10.91-6.229,1.556-3.78,1.477-7.476-.221-10.406-1.73-2.979-5-4.916-9.2-5.457-3.8-.489-5.856,1.282-6.906,2.854-2.028,3.032-2.024,7.957-.664,10.335,1.31,2.291,4.934,4.059,8.082,3.949a5.314,5.314,0,0,0,4.883-2.961,6.608,6.608,0,0,0-.2-6.659,4.964,4.964,0,0,0-4.164-2.358,2.807,2.807,0,0,0-2.592,2.768c-.094,1.073.273,2.265,1.152,2.472,1.637.382,2.215-.511,2.243-.554,0,0,.886-1.46-.222-1.67-1.26-.24-.929.738-.929.738-.018.027.311,1.349-1,1.044-.538-.126-.892-1-.806-1.993a2.347,2.347,0,0,1,2.168-2.357,4.491,4.491,0,0,1,3.764,2.157,6.172,6.172,0,0,1,.172,6.216,4.868,4.868,0,0,1-4.493,2.705c-3,.1-6.44-1.562-7.676-3.722a10.793,10.793,0,0,1,.647-9.862,6.307,6.307,0,0,1,6.476-2.657c4.06.521,7.209,2.38,8.866,5.236,1.632,2.809,1.7,6.365.2,10.012s-5.987,6.089-10.9,5.946c-4.7-.136-8.317-2.546-9.664-6.434-1.946-5.629-1.005-12.318,2.29-16.275a9.126,9.126,0,0,1,8.8-3.28c5.324.817,9.41,3.1,11.824,6.605,2.583,3.752,3.223,8.758,1.9,14.876a11.492,11.492,0,0,1-5.133,7.775c-5.335,3.264-13.75,1.288-13.824,1.27l.952.515a22.389,22.389,0,0,0,5.109.592h0Z" transform="translate(-2783.337 -2154.532)" fill="#edbd77"/>
      <path id="Path_684" data-name="Path 684" d="M3993.469,2370.2s-4.794,18.5-4.365,19.962,2.839,6.431,2.839,6.431h-2.317a1.747,1.747,0,0,1-.9-1.527c0-.026,0-.052,0-.078.038-1.147-3.211-5.619-3.211-5.619s1.275-7.1,0-9.9c-5.488-12.048,3.7-11.934,7.952-9.269Z" transform="translate(-3724.587 -2214.603)" fill="#cca283"/>
      <path id="Path_685" data-name="Path 685" d="M4428.212,2489.54s-1.376,9.939-1.452,10.55-.727,1.376-.689,2.37.383,4.356,1.453,5.2a3.054,3.054,0,0,1,1.185,1.873h-2.9a3.9,3.9,0,0,1-.42-1.682c.075-.685-.8-1.415-.842-2.828s0-4.052-.382-4.969-.269-7.225-1.529-8.635S4428.212,2489.54,4428.212,2489.54Z" transform="translate(-4134.701 -2327.543)" fill="#cca283"/>
      <path id="Path_686" data-name="Path 686" d="M3995.741,2277.219a11.5,11.5,0,0,1-.489-3.424c0-.427.016-.854.048-1.312,0,0-3.792-6.888-1.091-9.521,0,0,.017-.332.886-.6a15.539,15.539,0,0,1,5.119-.269c.079,0,.159.015.237.015,1.059.063,2.325.08,3.712.032,6.762-.189,16.336-1.422,17.917-1.185.284.047.584.094.917.157a21.461,21.461,0,0,0,2.591.317c.775.048,2.638-.837,4.207-.347a27.2,27.2,0,0,1,5.039,3.161,37.7,37.7,0,0,1,6.161,6.131,40.973,40.973,0,0,1,3.81,5.561h.005c.424.045.922.4,1.429.462.689.09.821.429.821.429a1.168,1.168,0,0,1-.454.54c.023,0,.049.009.072.011.689.09.821.429.821.429a1.494,1.494,0,0,1-1.492.794h0a3.308,3.308,0,0,1,.03,2.1c-.473.712.1,3.349.048,4.235a7.054,7.054,0,0,0,.3,1.771,1.554,1.554,0,0,1-1.311,1.028,2.066,2.066,0,0,1-1.993-1.012c-.429-.885-.7-1.454-1.122-1.532a12.537,12.537,0,0,1-3.286-3.4c-.27-.506-1.06-1.58-3.9-2.164a22.031,22.031,0,0,0-3.434-.379,3.232,3.232,0,0,1-1.681,1.836c-.343,2.488-.687,4.982-.722,5.274-.077.611-.727,1.376-.689,2.371s.384,4.357,1.453,5.2a3.053,3.053,0,0,1,1.187,1.864h-2.905a3.9,3.9,0,0,1-.421-1.683c.076-.685-.8-1.415-.84-2.828s0-4.052-.383-4.969c-.246-.592-.286-3.414-.62-5.727-1.537-.314-3.061-.587-3.875-.256-1.549.632-9.005,2.575-14.33.459a2.282,2.282,0,0,0-1.153.252,10.015,10.015,0,0,1-3.162.646c-.839,3.52-1.571,6.994-1.371,7.674.431,1.463,2.838,6.431,2.838,6.431h-2.317a1.751,1.751,0,0,1-.9-1.53c0-.025,0-.051,0-.076.039-1.147-3.21-5.62-3.21-5.62s-.2-6.311-1.563-9.446a6.4,6.4,0,0,1-.613-1.073,1.461,1.461,0,0,1-.318-.829h0Z" transform="translate(-3733.395 -2113.806)" fill="#efcdaf"/>
      <path id="Path_687" data-name="Path 687" d="M3981.163,2614.175s-1.686-1.814-.638-2.224.638.82.638,1.3Z" transform="translate(-3721.188 -2441.913)" fill="#2b478b"/>
      <path id="Path_688" data-name="Path 688" d="M4021.75,2262.229a16.576,16.576,0,0,0,5.4,1.882c2.8.047,9.591-1.564,12.354-1.738s13.967,2.418,16.607,1.58a.451.451,0,0,1,.167-.032l.039,0a5.261,5.261,0,0,1,2.559,1.026c.617.4,1.3.87,2.007,1.406a129,129,0,0,1,10.569,9.448,41.13,41.13,0,0,0-3.806-5.561,37.947,37.947,0,0,0-6.163-6.131,27.408,27.408,0,0,0-5.039-3.16c-1.564-.49-3.431.4-4.208.347a21.3,21.3,0,0,1-2.59-.317c-.332-.063-.632-.111-.917-.158-1.58-.238-11.154,1-17.916,1.185-1.39.047-2.657.031-3.713-.032-.079,0-.158-.016-.237-.016a15.55,15.55,0,0,0-5.119.268Z" transform="translate(-3760.051 -2113.682)" fill="#ffe7d7"/>
      <path id="Path_689" data-name="Path 689" d="M4205.257,2321.791c.41-1.709,4.511-.411,8.406,1.161s5.6.205,8.727,1.094,3.07,5.212,3.169,5.468c1.1,2.8-7.18,1.231-10.215,2.575s-10.43.569-10.088-1.618S4204.847,2323.5,4205.257,2321.791Z" transform="translate(-3931.499 -2169.955)" fill="#27007f"/>
      <path id="Path_690" data-name="Path 690" d="M4176.381,2264.017c-3.348-.137-4.306-1.915-8.337-1.163-3.315.618-5.661.221-6.883-.775,6.754-.194,16.336-1.417,17.907-1.179.285.043.595.1.919.15a3.332,3.332,0,0,1-3.606,2.966Z" transform="translate(-3890.389 -2113.753)" fill="#27007f"/>
      <path id="Path_691" data-name="Path 691" d="M4622.827,2311.711a37.775,37.775,0,0,1,6.16,6.132,40.99,40.99,0,0,1,3.81,5.56c.428.047.932.394,1.439.459.68.094.822.426.822.426a1.261,1.261,0,0,1-.46.552h.08c.679.1.822.443.822.443a1.515,1.515,0,0,1-1.5.789,3.3,3.3,0,0,1,.031,2.1c-.473.712.1,3.35.048,4.235a7.055,7.055,0,0,0,.3,1.771,1.557,1.557,0,0,1-1.311,1.028,2.068,2.068,0,0,1-1.993-1.012c-.429-.885-.7-1.454-1.122-1.533a12.545,12.545,0,0,1-3.286-3.4c-.269-.5-1.059-1.58-3.9-2.164.41-2.623,2.1-6.035.314-8.879a7.9,7.9,0,0,1-.521-1.027,6.95,6.95,0,0,1-.269-.949,7.12,7.12,0,0,1-.128-1.336,7.014,7.014,0,0,1,.065-.954,9.5,9.5,0,0,1,.6-2.25h0Z" transform="translate(-4321.392 -2161.285)" fill="#27007f"/>
      <path id="Path_692" data-name="Path 692" d="M3970.735,2283.487a7.836,7.836,0,0,1,2.365-4.8s.056-1.228,6.006-.875a3.441,3.441,0,0,1,1.139,2.879c-.351,2.939,4.441,3.443,3.915,7.007-.458,3.1-6.543,4.394-10.011,1.821q0-.621.039-1.31a21.812,21.812,0,0,1-1.237-2.808l-.819,14.632-.775.043s-.965-13.514-.623-16.59Z" transform="translate(-3712.286 -2129.534)" fill="#27007f"/>
      <path id="Path_693" data-name="Path 693" d="M74.83,2364.93c.018.3.04.6.064.9a68.829,68.829,0,0,0,.925,6.973l73.274-.2,27.669-.077s-.925-.867-2.634-2.3-4.207-3.432-7.341-5.706c-8.776-8.864-14.87-10.5-17.445-10.749l-.152-.076a31.874,31.874,0,0,1,9.875,2.041c-10.178-5.119-17.555-6.266-19.75-6.508l-.221-.085a35.047,35.047,0,0,1,8.265,1.291A90.8,90.8,0,0,0,125.465,2345c-2.167-.467-4.364-.846-6.588-1.117l-.647-.076q-1.907-.208-3.795-.368a169.052,169.052,0,0,0-36.322,1.065c-.193.429-.38.865-.554,1.307a37.385,37.385,0,0,0-1.966,6.544,43.6,43.6,0,0,0-.852,7.562q-.081,2.4.09,5.018Z" transform="translate(-69.854 -2190.445)" fill="#edbd77"/>
      <path id="Path_694" data-name="Path 694" d="M74.685,2266.11c-.047,1.6-.019,3.273.1,5.019.018.3.04.6.064.9a68.845,68.845,0,0,0,.925,6.973h-.185l.221.2,73.284-.14c-.014-.086-.03-.173-.047-.26-2.227-11.9-15.7-18.311-15.7-18.311,14.212,2.214,20.585,11.293,20.683,11.43-3.755-9.459-19.106-14.061-19.106-14.061,7.89,1.036,16.842,5.58,17.12,5.72-7.215-5.459-19.949-9.974-33.214-13.507-1.418-.378-2.844-.743-4.268-1.1-11.586-2.889-23.176-5.033-31.5-6.41a38.351,38.351,0,0,0-5,8.122c-.193.428-.38.864-.554,1.307a37.569,37.569,0,0,0-1.964,6.545,43.6,43.6,0,0,0-.858,7.567h0Z" transform="translate(-69.805 -2096.644)" fill="#ffcf83"/>
      <path id="Path_695" data-name="Path 695" d="M371.669,2796.76H.332a.331.331,0,0,0-.331.331v.284a.331.331,0,0,0,.331.331H371.669a.331.331,0,0,0,.331-.331v-.283a.331.331,0,0,0-.331-.332Z" transform="translate(0 -2614.773)" fill="#fff"/>
      <path id="Path_696" data-name="Path 696" d="M74.685,2180.611c-.047,1.6-.019,3.274.1,5.019.018.3.04.6.064.9,1.17-.1,2.448-.261,3.842-.5,0,0,24.039-4.729,35.865-16.419-.26.191-8.68,6.311-17.929,6.826,0,0,15.427-5.114,17.762-12.312.068-.212.127-.43.174-.648h0c1.078-5.168-13.157-10.991-25.856-12.363a52.464,52.464,0,0,0-4.709,4.834q-.474.552-.929,1.121a38.356,38.356,0,0,0-5,8.122c-.193.428-.38.865-.554,1.307a37.569,37.569,0,0,0-1.965,6.546,43.629,43.629,0,0,0-.857,7.561h0Z" transform="translate(-69.805 -2011.145)" fill="#edbd77"/>
      <path id="Path_697" data-name="Path 697" d="M1278.6,1483.08c.581-.622,1.125-1.285,1.58-1.87h0c1.329-3.08,3.432-10.307,3.432-10.307.221-8.443,1.182-13.33,1.956-15.964a11.938,11.938,0,0,1,1.025-2.626c.017-.029.026-.043.026-.043a.2.2,0,0,1,.03.028,10.1,10.1,0,0,1,.781.814c5.314,6.173.775,16.054.635,18.316-.144,2.366-4.863,9.822-4.863,9.822h0a15.164,15.164,0,0,0-1.957,4.143c-.227,1.485-2.768,3.11-2.768,3.11s-.62.037-.625-.984S1277.03,1484.743,1278.6,1483.08Z" transform="translate(-1194.499 -1357.77)" fill="#f4a671"/>
      <path id="Path_698" data-name="Path 698" d="M605.3,1509.838l11.909,2.5,62.976-69.216c.308-.431,1.54.094.554,1.172l-62.222,68.318,10.424,2.194a.821.821,0,0,1,.625.694l.461,6.391a.418.418,0,0,1-.543.449.821.821,0,0,1-.625-.694l-.418-5.82-5.111-1.075.418,5.819a.412.412,0,0,1-.543.443.822.822,0,0,1-.624-.694l-.418-5.819-4.5-.948-.043.048-.082-.074-.134-.027.418,5.819a.412.412,0,0,1-.541.443.822.822,0,0,1-.625-.694l-.419-5.819-4.57-.962.42,5.819a.418.418,0,0,1-.543.45.822.822,0,0,1-.625-.694l-.419-5.819-4.522-.952.418,5.819a.417.417,0,0,1-.541.45.82.82,0,0,1-.624-.694l-.461-6.391a.406.406,0,0,1,.534-.437Z" transform="translate(-565.416 -1349.081)" fill="#6257a0"/>
      <path id="Path_699" data-name="Path 699" d="M1412.838,1288.73s.326.885-.155,1.226,1.218,1.93,1.55,3.26a2.865,2.865,0,0,1-.082,2.036,2.247,2.247,0,0,0-.247-1.2,1.85,1.85,0,0,1-.208,1.593c-.526.679-.221,1.024-.221,1.024s-1.667.028-2.071-1.1a3.075,3.075,0,0,0,.221.734s-1.627-.57-2.05-1.686a2.318,2.318,0,0,1,.862-2.6c.494-.176,1.3-1.511,1.151-1.874s1.251-1.414,1.251-1.414Z" transform="translate(-1317.739 -1204.872)" fill="#2c3a64"/>
      <path id="Path_700" data-name="Path 700" d="M1364.978,1189.457c.459-1.626,4.213-1.993,8.386-.813s7.184,3.449,6.726,5.074-4.214,1.993-8.386.813S1364.52,1191.082,1364.978,1189.457Z" transform="translate(-1276.115 -1110.651)" fill="#e2af64"/>
      <path id="Path_701" data-name="Path 701" d="M1455.56,1874.68l1.953.728s8.481-11.764,9.521-22.112a15.689,15.689,0,0,0-.279-5.291s.083-.474.229-1.311c.067-.391.15-.86.244-1.4.276-1.58.655-3.741,1.089-6.2,1-5.663,2.291-12.9,3.294-18.227l-.526-.169-5.693-1.836-1.176-3.737-4.239-1.116s-.947,1.852-1.793,10.6c-.156,1.148-.3,2.413-.406,3.786-.135,1.885-.216,3.806-.216,5.7a75.255,75.255,0,0,0,.622,9.633q.289,2.278.743,4.7a21.133,21.133,0,0,1,.162,4.65C1458.665,1861.532,1455.56,1874.68,1455.56,1874.68Z" transform="translate(-1360.845 -1695.971)" fill="#6257a0"/>
      <path id="Path_702" data-name="Path 702" d="M1489.71,1822.795l9.205,18.3c.067-.391.15-.86.245-1.4.276-1.58.655-3.741,1.089-6.2,1-5.663,2.291-12.9,3.294-18.227l-.526-.169-5.693-1.835-1.176-3.737-5.064-1.506s-.121,2.242-.969,10.992C1489.958,1820.157,1489.817,1821.422,1489.71,1822.795Z" transform="translate(-1392.773 -1690.371)" fill="#27007f"/>
      <path id="Path_703" data-name="Path 703" d="M1528.253,1784.175c-.281-.332,1.73-.276,1.73-.276,3.57.949,13.109-2.649,13.109-2.649s3.458,3.04,3,10.328c-.221,3.556-.625,18.671-1.048,23.139-.153,1.621-.287,2.775-.342,3.235,4.15,11.059-.64,24.678-.64,24.678l-1.242-.5s-2.726-15.156-4.941-21.851a13.163,13.163,0,0,0-1.066-2.56,28.879,28.879,0,0,1-2.667-7.114,174.525,174.525,0,0,1-3.588-18.87c1.551,3.691.651-4.013-2.308-7.558Z" transform="translate(-1428.783 -1665.343)" fill="#6257a0"/>
      <path id="Path_704" data-name="Path 704" d="M1396.25,1126.814l9.189,7.443s.268-1.615,1.218-1.367c1.476.387,3.273-3.11,1.531-6.688-.111-.234-.232-.453-.35-.659-1.8-1.391-3.808-2.939-5.239-4.022-3.4-.816-6.348,5.293-6.348,5.293Z" transform="translate(-1305.395 -1048.474)" fill="#2c3a64"/>
      <path id="Path_705" data-name="Path 705" d="M1447.1,1318.462a11.107,11.107,0,0,0,4.11.963c6.138.332,7.529-5.044,7.785-8.615a5.173,5.173,0,0,0-1.689-.284c-.138,0-.278.006-.415.016-.435.025-.886.069-1.264.111-.751-.392-2.1-2.3-2.879-5.483l-.265.123-4.429,2.081s.47,1.439.818,2.82a5.609,5.609,0,0,1,.3,2.414c-.349.142-.553.232-.553.232a30.487,30.487,0,0,0-1.523,5.62v0Z" transform="translate(-1352.936 -1220.242)" fill="#ffb27d"/>
      <path id="Path_706" data-name="Path 706" d="M1461.78,1309.241s.471,1.439.818,2.82c2.588-.722,3.374-3.444,3.61-4.9l-4.429,2.082Z" transform="translate(-1366.66 -1222.103)" fill="#ed985f"/>
      <path id="Path_707" data-name="Path 707" d="M1396.837,1200.694s6.192-1.439,5.242-5.277-.794-6.615-4.788-5.868-4.4,2.409-4.391,3.764S1395.2,1200.968,1396.837,1200.694Z" transform="translate(-1302.262 -1112.031)" fill="#ffb27d"/>
      <path id="Path_708" data-name="Path 708" d="M1383.575,1181.123c.664-1.393,1.45-1.318,1.94-1.072a4.444,4.444,0,0,1,5.765-.494,7.551,7.551,0,0,0,3.478,3.739s-.951.974-3.709.953a4.545,4.545,0,0,1-2.459-.927,14.831,14.831,0,0,0,3.232,2.409c-3.451-.664-5.766-4.656-6-5.081a4.987,4.987,0,0,0-.9,2.126c-.064,1.055.3,3.1-.306,3.182,0,0-2.037-2.749-1.04-4.837Z" transform="translate(-1293.286 -1102.012)" fill="#2c3a64"/>
      <path id="Path_709" data-name="Path 709" d="M1397.851,1126.563a13.734,13.734,0,0,1,6.143.376c3.187.815,5.683,2.257,6.273,3.507a6.6,6.6,0,0,0,.129-1.294,6.527,6.527,0,0,0-.4-2.25,7.594,7.594,0,0,0-.316-.75c-.111-.233-.232-.453-.35-.658-1.8-1.391-3.809-2.939-5.239-4.022-1.771-.426-3.432,1.037-4.6,2.534a17.215,17.215,0,0,0-1.641,2.557h0Z" transform="translate(-1306.891 -1048.428)" fill="#2c3a64"/>
      <path id="Path_710" data-name="Path 710" d="M1686.12,2717.114h9.835a5.4,5.4,0,0,0-.278-2.636c-.493-1.092-1.263-1.588-1.078-2.908a3.544,3.544,0,0,1-3.065,1.173,10.883,10.883,0,0,1-1.706,2.214c-.641.46-3.507.3-3.707,2.157Z" transform="translate(-1576.403 -2535.126)" fill="#233862"/>
      <path id="Path_711" data-name="Path 711" d="M1361.66,2723.444h9.835a4.088,4.088,0,0,0-.278-2.636,1.893,1.893,0,0,1,.071-2.264,3.828,3.828,0,0,1-1.518.314l-.142,0a3.456,3.456,0,0,1-1.463-.515,35.121,35.121,0,0,1-2.8,2.944C1364.727,2721.746,1361.858,2721.588,1361.66,2723.444Z" transform="translate(-1273.055 -2541.456)" fill="#233862"/>
      <path id="Path_712" data-name="Path 712" d="M1399.48,1392.947a13.158,13.158,0,0,1,.959-2.512c.009-.025.241-.722,2.334-1.488.332-.12.677-.307,1.076-.47l.247-.1v.005c-.042.151-1.159,4.2-.753,5.063.293.619,4.264-.6,6.741-1.606.443-.18.838-.351,1.155-.505a2.561,2.561,0,0,0,.793-.492,9.519,9.519,0,0,0,.332-3.049c.009-.508.008-.971,0-1.287v-.429l.075-.01h.012c.16-.019.529-.058,1-.084a9.055,9.055,0,0,1,3.484.365,12.689,12.689,0,0,0-.886,2.971c-.022.147-.042.295-.056.443a6.17,6.17,0,0,0-.032.624c0,.1,0,.208.008.311a1.794,1.794,0,0,0,.567,1.114,8.673,8.673,0,0,0,1.178.979c.306.221.633.451.969.7.01.6,0,1.329,0,2.145a55.793,55.793,0,0,0,.24,5.924,5.461,5.461,0,0,0,.784,2.288,5.708,5.708,0,0,0,.581.781c.339.381.729.835,1.134,1.337,1.654,2.063,3.53,4.942,2.99,6.877-.049,2.271-17.85,2.448-17.44-.046,0,0-4.224-11.061-5.779-14.409-.055-.124-.105-.243-.152-.366a8.929,8.929,0,0,1-.178-4.568,3.413,3.413,0,0,0-1.387-.51h0Z" transform="translate(-1308.414 -1295.778)" fill="#f99746"/>
      <path id="Path_713" data-name="Path 713" d="M1416.589,1111.658s1.033-6.483-3.594-7.446-7.223.816-8.525,4.207Z" transform="translate(-1313.08 -1032.117)" fill="#edbd77"/>
      <path id="Path_714" data-name="Path 714" d="M1312.651,1162.4c.4-1.55,3.289-2.24,7.144-1.926a29.638,29.638,0,0,1,4.866.833,28.423,28.423,0,0,1,5.639,2.063c2.958,1.491,4.733,3.256,4.373,4.66-.4,1.56-3.321,2.248-7.207,1.923.183-.393.493-.775.988-.644s1.054-.194,1.48-.825a1.307,1.307,0,0,0,.74-.8,1.078,1.078,0,0,0,.028-.246,1.124,1.124,0,0,0-.131-.528c-.59-1.25-3.087-2.691-6.273-3.507a13.725,13.725,0,0,0-6.143-.376c-.83.205-1.376.567-1.5,1.073a1.6,1.6,0,0,0,.565,1.425,5.628,5.628,0,0,0,.49,1.862c-3.363-1.552-5.439-3.476-5.054-4.987Z" transform="translate(-1227.194 -1084.894)" fill="#ffcf83"/>
      <path id="Path_715" data-name="Path 715" d="M1554.605,1480.559a45.763,45.763,0,0,0,6.858-.851c-.405-.5-.8-.958-1.134-1.339a5.5,5.5,0,0,1-.581-.782,5.442,5.442,0,0,1-.784-2.289,54.536,54.536,0,0,1-.24-5.924c-2.238-2.507-4.118-4.544-4.118-4.544s-4.173,3.825-4.819,7.639-1.868,8.56,4.82,8.09Z" transform="translate(-1448.448 -1369.513)" fill="#ed7d2b"/>
      <path id="Path_716" data-name="Path 716" d="M1558.869,1395.266h1.257a13,13,0,0,1-.092-1.528,12.821,12.821,0,0,1,.175-2.094,13.052,13.052,0,0,1,1.13-3.544,10.869,10.869,0,0,1,1.091-1.81c-.475.025-.844.065-1,.083h-.012l-.074.121a17.4,17.4,0,0,0-2.287,5.646,9.523,9.523,0,0,0-.183,3.125Z" transform="translate(-1457.383 -1296.084)" fill="#6257a0"/>
      <path id="Path_717" data-name="Path 717" d="M1438.5,1433.948l1.218-.3a12.725,12.725,0,0,1,.021-9.037c-.4.163-.758.322-1.077.471-1.69,5.52-.161,8.868-.161,8.868Z" transform="translate(-1344.307 -1331.91)" fill="#6257a0"/>
      <path id="Path_718" data-name="Path 718" d="M1443.149,1506.33c-.025-.332-.263-3.62-.263-3.62s-.135-1.007-1.842-.57-7.749,2.016-7.749,2.016a1.946,1.946,0,0,0-.426,1.214,1.967,1.967,0,0,0,.076.54c.306,1.007,1.321,7.006,1.321,7.006l3.678,9.022,2.676,2.738,16.313,3.173s.345-6.768-2.459-10.774c-1.636-2.337-3.543-4.714-3.543-4.714s-7.384-.878-7.783-6.031Z" transform="translate(-1339.632 -1404.291)" fill="#6257a0"/>
      <path id="Path_719" data-name="Path 719" d="M1347.154,1420.434a11.5,11.5,0,0,0,4.478-1.229c.576-.465,1.271-1.026,2-1.638a66.2,66.2,0,0,0,5.113-4.617,7.088,7.088,0,0,0,1.5-1.938,20.23,20.23,0,0,0,.709-3.056c.117-.682.238-1.425.352-2.214.221-1.3.413-2.7.624-4.107.379-2.56.812-5.147,1.3-7.172a13.4,13.4,0,0,1,1.059-3.029c.306-.554.639-.867,1.013-.873a.857.857,0,0,1,.154.017s2.2.2,2.989,4.415a6.869,6.869,0,0,1,.119.744,15.983,15.983,0,0,1,.107,1.836c0,.287-.008.583-.023.869a40.733,40.733,0,0,1-.663,5.826c-.111.56-.215,1.135-.332,1.713-.866,4.181-2.231,8.181-3.709,9.724a2.235,2.235,0,0,1-.179.181,15.664,15.664,0,0,1-2.727,1.859c-1.611.892-3.553,1.783-5.291,2.547h-.014c-1.02.425-1.955.819-2.74,1.126,0,0-.167.076-.462.188-.248.11-.591.221-.982.372l-.179.068a7.536,7.536,0,0,0-2.352,1.335,4.445,4.445,0,0,1-4.369.715s.789-3.548,2.505-3.659Z" transform="translate(-1257.152 -1300.075)" fill="#ffb27d"/>
      <path id="Path_720" data-name="Path 720" d="M1626.35,1393.793a5.95,5.95,0,0,1,5.469.5c-.81-4.274-3.118-4.463-3.118-4.463C1627.751,1389.631,1626.994,1391.3,1626.35,1393.793Z" transform="translate(-1520.522 -1299.375)" fill="#f99746"/>
      <path id="Path_721" data-name="Path 721" d="M1562.382,1509.616a.526.526,0,1,0-.526.525.527.527,0,0,0,.526-.525h0Z" transform="translate(-1459.733 -1410.893)" fill="#ed7d2b"/>
      <path id="Path_722" data-name="Path 722" d="M1560.932,1509.616a.526.526,0,1,0-.526.525.527.527,0,0,0,.526-.525h0Z" transform="translate(-1458.377 -1410.893)" fill="#f99746"/>
      <path id="Path_723" data-name="Path 723" d="M1570.579,1514.913a.078.078,0,0,0-.073-.053.076.076,0,0,0,0,.153.087.087,0,0,0,.023,0,.076.076,0,0,0,.053-.073.069.069,0,0,0,0-.023h0Z" transform="translate(-1468.24 -1416.287)" fill="#2b478b"/>
      <path id="Path_724" data-name="Path 724" d="M1563.279,1517.233a.076.076,0,1,0-.073.1.08.08,0,0,0,.023,0,.076.076,0,0,0,.053-.073.074.074,0,0,0,0-.024h0Z" transform="translate(-1461.416 -1418.456)" fill="#2b478b"/>
      <path id="Path_725" data-name="Path 725" d="M1445.951,1535.827h0a.526.526,0,1,0-.526.526h0a.525.525,0,0,0,.525-.525h0Z" transform="translate(-1350.879 -1435.397)" fill="#ed7d2b"/>
      <path id="Path_726" data-name="Path 726" d="M1444.5,1535.827h0a.526.526,0,1,0-.526.526h0a.525.525,0,0,0,.525-.525h0Z" transform="translate(-1349.523 -1435.397)" fill="#f99746"/>
      <path id="Path_727" data-name="Path 727" d="M1454.169,1541.113a.076.076,0,1,0-.073.1.088.088,0,0,0,.023,0,.078.078,0,0,0,.053-.073.086.086,0,0,0,0-.023Z" transform="translate(-1359.406 -1440.782)" fill="#2b478b"/>
      <path id="Path_728" data-name="Path 728" d="M1446.83,1543.349a.076.076,0,0,0-.151.017.079.079,0,0,0,.006.029.078.078,0,0,0,.074.053.085.085,0,0,0,.022,0,.077.077,0,0,0,.053-.073.067.067,0,0,0,0-.023h0Z" transform="translate(-1352.543 -1442.867)" fill="#2b478b"/>
      <path id="Path_729" data-name="Path 729" d="M1540.055,1260.45s.325.886-.155,1.227,1.218,1.93,1.55,3.259a2.871,2.871,0,0,1-.082,2.037,2.247,2.247,0,0,0-.246-1.2,1.853,1.853,0,0,1-.208,1.593c-.525.679-.221,1.023-.221,1.023s-1.667.027-2.071-1.1a3.079,3.079,0,0,0,.221.734s-1.627-.569-2.052-1.686a2.316,2.316,0,0,1,.862-2.6c.494-.176,1.3-1.511,1.15-1.872S1540.055,1260.45,1540.055,1260.45Z" transform="translate(-1436.678 -1178.432)" fill="#2c3a64"/>
      <path id="Path_730" data-name="Path 730" d="M2068.79,2683.84s-1.428,1.329-1.149,2.264,1.567,1.569,1.741,2.718.871,1.771,1.5,1.771h2.989s.461-.809-.653-1.053-1.536-1.6-1.467-2.85a21.954,21.954,0,0,0-.11-2.926l-2.368-.553-.482.629Z" transform="translate(-1933.063 -2508.612)" fill="#2c3a64"/>
      <path id="Path_731" data-name="Path 731" d="M2354.037,2733.224a4.383,4.383,0,0,0,1.106.144h7.006c-.027-.221-.2-.908-1.283-1.084-1.29-.209-3.554-.976-3.937-2.683s-3.17.522-3.17.522-.349,2.786.278,3.1Z" transform="translate(-2200.507 -2551.382)" fill="#2c3a64"/>
      <path id="Path_732" data-name="Path 732" d="M2289.327,2082.2s-.423,5.281-.92,11.625c-.677,8.623-1.49,19.217-1.571,21.223-.139,3.485-.7,9.058-.7,9.058a4.366,4.366,0,0,1-3.971.766,91.243,91.243,0,0,1-3.035-16.376c-.01-.138-.021-.276-.031-.416-.627-8.571-1.6-26.617-1.6-26.617l11.827.736Z" transform="translate(-2129.301 -1946.018)" fill="#6257a0"/>
      <path id="Path_733" data-name="Path 733" d="M2289.336,2082.2s-.423,5.281-.92,11.625l-9.273,14.671c-.01-.138-.021-.276-.031-.416-.626-8.571-1.6-26.617-1.6-26.617l11.826.736Z" transform="translate(-2129.31 -1946.018)" fill="#27007f"/>
      <path id="Path_734" data-name="Path 734" d="M2108.2,2052.946s-7.629,19.127-12.646,28.115-6.584,11.5-6.584,11.5-2.879-1.15-3.136-1.934c0,0,1.919-17.353,5.279-21.583,1.9-2.389,4.127-9.563,4.232-12.068s.679-7.474.679-7.474l12.177,3.445Z" transform="translate(-1950.103 -1916.137)" fill="#6257a0"/>
      <path id="Path_735" data-name="Path 735" d="M2637,2061.78a32.177,32.177,0,0,1,3.054,1.624,7.026,7.026,0,0,1,1.188,2.083c-.069.123-.2.161-.443-.008s-.928-.875-.953-.743,1.827,2.311,1.5,2.768-2.186.326-3.247-.429-2.12-3.528-2.279-3.679C2634.461,2062.116,2637,2061.78,2637,2061.78Z" transform="translate(-2463.928 -1927.618)" fill="#ffb27d"/>
      <path id="Path_736" data-name="Path 736" d="M2428.19,1714.876c.748-.65.768-.814.768-.814s-4.774-8.256-5.188-9.05-2.973-13.2-2.973-13.2l-8.846-2.565s6.231,16.112,7.319,18.1c1.8,3.291,7.668,8.133,7.668,8.133a2.762,2.762,0,0,0,1.252-.61h0Z" transform="translate(-2255.002 -1579.329)" fill="#e58638"/>
      <path id="Path_737" data-name="Path 737" d="M2481.2,1580.389s3.113,5.477,6.156,6.192a8.323,8.323,0,0,0-.867-3.1c.3-.358.57-.686.8-.98a17.982,17.982,0,0,0,1.131-1.584l-1.032-2.776-.7-1.882a9.2,9.2,0,0,1-1.1,1.578A7.446,7.446,0,0,1,2481.2,1580.389Z" transform="translate(-2319.746 -1473.692)" fill="#ffb27d"/>
      <path id="Path_738" data-name="Path 738" d="M2548.376,1600.48a5.777,5.777,0,0,0,1.7,4.666,18.13,18.13,0,0,0,1.131-1.584l-1.032-2.776a5.956,5.956,0,0,0-1.8-.306Z" transform="translate(-2382.527 -1496.335)" fill="#ed975d"/>
      <path id="Path_739" data-name="Path 739" d="M2552.073,1525.2s-4.65-1.814-3.477-4.692,1.364-5.053,4.384-4.017,3.144,2.368,2.989,3.424-2.655,5.682-3.9,5.285Z" transform="translate(-2382.579 -1417.566)" fill="#ffb27d"/>
      <path id="Path_740" data-name="Path 740" d="M2230.035,1656.841c1.877,2.7,15.907,6.3,15.738,4.435-.056-.609-.083-1.229-.083-1.841s.027-1.232.082-1.841q.054-.6.15-1.272a29.354,29.354,0,0,1,3.092-9.26c.142-.274.289-.554.443-.829a28.346,28.346,0,0,0,1.946-4.371c.973-2.81,1.366-5.5.873-7.254,0-.007,0-.015-.008-.022-2.932-1.355-4.069-6.615-4.069-6.615s-10,1.8-15.61,15.13c0,0-.538,1.465-1.154,3.452a39.19,39.19,0,0,0-1.756,7.855A4.1,4.1,0,0,0,2230.035,1656.841Z" transform="translate(-2084.569 -1522.037)" fill="#ee9849"/>
      <path id="Path_741" data-name="Path 741" d="M2531.9,1484.167c-.032-.064-.126-.133-.358-.2a.956.956,0,0,1,.469-.017,1.224,1.224,0,0,1,1.043-.866.734.734,0,0,0-.467.431c.816-.517,2.325-.664,6.1.59,4.976,1.661,2.49,4.546,1.736,4.778s-2.142-1.255-3.392-1.457-1.924,1.537-2.4,1.681-.205-.251-.7-.648-.784.536-.775,1.19-.971,1.311-.971,1.311a9.131,9.131,0,0,0-.56-1.081c-.57-1.046-.415-4.841.129-5.525.05-.06.094-.125.147-.183Z" transform="translate(-2366.556 -1386.575)" fill="#2b478b"/>
      <path id="Path_742" data-name="Path 742" d="M2531.23,1447.363s.576-4.628,3.924-4.371,4.768,1.986,4.982,4.555Z" transform="translate(-2366.52 -1349.086)" fill="#edbd77"/>
      <path id="Path_743" data-name="Path 743" d="M2482.078,1496.081c.123-.027.251-.052.379-.076.049-.009.1-.019.146-.027a20.451,20.451,0,0,1,3.35-.278c.253,0,.509.007.76.014a21.166,21.166,0,0,1,3.021.3c.158.027.314.055.464.087.208.043.412.087.606.136,2.357.576,3.919,1.542,3.886,2.591-.033,1.107-1.589,2.009-4.19,2.405a3.661,3.661,0,0,0,.16-.588,2.726,2.726,0,0,0,.967-1.447c.013-.371-.289-.725-.814-1.031a9.777,9.777,0,0,0-4.267-.957,9.16,9.16,0,0,0-4.517.792s-.041,1.747-.019,2.144c.019.238.044.466.079.672-2.164-.582-3.57-1.507-3.543-2.5.036-.966,1.428-1.786,3.533-2.239Z" transform="translate(-2317.263 -1398.374)" fill="#ffcf83"/>
      <path id="Path_744" data-name="Path 744" d="M2230.07,1775.144c12.068-3.643,13.992-18.034,13.992-18.034s-6.873,5.252-12.235,10.179a38.861,38.861,0,0,0-1.756,7.855Z" transform="translate(-2084.958 -1642.774)" fill="#e58638"/>
      <path id="Path_745" data-name="Path 745" d="M2016.994,2096.229l1.218-11.293,1.746.187a5.46,5.46,0,0,1,10.841.925c0,.079,0,.16,0,.239l1.746.187-1.219,11.293a2.282,2.282,0,0,1-2.269,2.032c-.078,0-.158,0-.236-.012l-9.806-1.053a2.283,2.283,0,0,1-2.031-2.268,2.243,2.243,0,0,1,.013-.236h0Zm10.894-12.673a4.859,4.859,0,0,0-.529-.028,5.035,5.035,0,0,0-4.956,4.144l9.97,1.071a5.037,5.037,0,1,0-6.5-7.692l2.018,2.5Z" transform="translate(-1885.733 -1944.522)" fill="#c65447"/>
      <path id="Path_746" data-name="Path 746" d="M2136.317,2031.418a24.775,24.775,0,0,1,.206,2.656,4.709,4.709,0,0,1-.608,1.487c-.109.005-.437.02-.428-.209s.158-.443.062-.4-.124.9-.554.878-1.717-.5-1.661-1.507,1.417-2.834,1.451-3c.267-1.41,1.533.1,1.533.1Z" transform="translate(-1994.514 -1898.575)" fill="#ffb27d"/>
      <path id="Path_747" data-name="Path 747" d="M2151.075,1696.58c.958.443,1.313-.008,1.313-.008s5.579-9.317,6.167-10.065,10.887-5.169,10.887-5.169,4.19-1.6,4.356-4.144a4.57,4.57,0,0,0-2.483-4.385,4.638,4.638,0,0,0-5.214.332c-3.378,2.625-10.075,7.9-11.153,9.332-2.4,3.185-5.057,13.168-5.057,13.168a3.315,3.315,0,0,0,1.185.94Z" transform="translate(-2009.995 -1563.352)" fill="#ee9849"/>
      <path id="Path_748" data-name="Path 748" d="M2786.211,2250.62a.4.4,0,1,1-.4.4.4.4,0,0,1,.4-.4Z" transform="translate(-2604.535 -2104.171)" fill="#ffe3bb"/>
      <path id="Path_749" data-name="Path 749" d="M2661.391,2142.372a.4.4,0,1,1,.4-.4h0a.4.4,0,0,1-.4.4Z" transform="translate(-2487.837 -2002.217)" fill="#ffe3bb"/>
      <path id="Path_750" data-name="Path 750" d="M2675.431,2290.93a.4.4,0,1,1-.4.4.4.4,0,0,1,.4-.4h0Z" transform="translate(-2500.963 -2141.858)" fill="#ffe3bb"/>
      <path id="Path_751" data-name="Path 751" d="M2813.841,2521.54a.4.4,0,1,1-.4.4.4.4,0,0,1,.4-.4Z" transform="translate(-2630.367 -2357.461)" fill="#ffe3bb"/>
      <path id="Path_752" data-name="Path 752" d="M2702.931,2410.67a.4.4,0,1,1-.4.4.4.4,0,0,1,.4-.4Z" transform="translate(-2526.674 -2253.806)" fill="#ffe3bb"/>
      <path id="Path_753" data-name="Path 753" d="M2661.438,2171.72h0a.4.4,0,1,1-.4.4v0a.4.4,0,0,1,.4-.4Z" transform="translate(-2487.883 -2030.405)" fill="#ffe3bb"/>
      <path id="Path_754" data-name="Path 754" d="M3002.906,2675.838s2.085,4.912,1.76,5.979-2.827,1.25-2.827,1.25h4.264a7.239,7.239,0,0,0-.371-1.945,54.052,54.052,0,0,1-.742-5.932l-2.085.649Z" transform="translate(-2806.507 -2501.114)" fill="#ed9f4a"/>
      <path id="Path_755" data-name="Path 755" d="M2905.522,2695.83s-1.842,5.456-2.78,5.838a17.639,17.639,0,0,1-2.5.7h3.718s-.519-.775-.179-1.143,3.366-4.958,3.366-4.958l-1.623-.433Z" transform="translate(-2711.519 -2520.41)" fill="#ed9f4a"/>
      <path id="Path_756" data-name="Path 756" d="M2771.109,2392.047c-.111.475,1.106.57,2.069.7a6.548,6.548,0,0,1,.821.156,4.393,4.393,0,0,0,1.078.135,4.442,4.442,0,0,0,.693-.055c.8,1.974.458,7.077,1.059,11.612.394,2.907,2.906,4.455,5.955,5.119l-.016.015a.417.417,0,0,1,.095.016,4.228,4.228,0,0,0,.458.079c.268.08.521.175.505.317a10.748,10.748,0,0,0,.128,1.517l1.026.332s1.5-1.849,1.849-1.849c.016,0,.016,0,.016-.016h.284l-.048.016s.791,1.059,1.074,1.09a8.235,8.235,0,0,0,1.39-.221,13.986,13.986,0,0,0,.837-1.153c.095-.015.175-.032.27-.048,2.971-.521,4.539-3.1,5.314-5.182h.016a14.056,14.056,0,0,0,.725-2.812,5.011,5.011,0,0,1-3.68,0c-7.994-3.191-13.714.964-14.093-3.4a21.253,21.253,0,0,0-1.833-7.094,2.031,2.031,0,0,0-.758-1.55c-.471-.377-.948-.539-1.785.252a3.385,3.385,0,0,1-.617.426c-1.065.587-2.723,1.078-2.834,1.6Z" transform="translate(-2590.784 -2233.974)" fill="#ffe7d7"/>
      <path id="Path_757" data-name="Path 757" d="M2773.493,2405.569c-.376.17-.4.945-.376,1.43-.975-.132-2.187-.233-2.08-.708.11-.508,1.771-1,2.836-1.591A.8.8,0,0,1,2773.493,2405.569Z" transform="translate(-2590.716 -2248.225)" fill="#ed9f4a"/>
      <path id="Path_758" data-name="Path 758" d="M2842.841,2443.321c.8,1.974.458,7.078,1.059,11.612.394,2.907,2.906,4.456,5.955,5.119l-.015.016a.385.385,0,0,1,.095.015,4.111,4.111,0,0,0,.459.079c.267.08.521.175.5.317a10.752,10.752,0,0,0,.128,1.517l1.026.332s1.5-1.85,1.85-1.85c.015,0,.015,0,.015-.015h.285l-.048.015s.791,1.058,1.074,1.091a8.259,8.259,0,0,0,1.39-.221,13.959,13.959,0,0,0,.837-1.154c.1-.016.175-.032.27-.047,2.97-.521,4.539-3.1,5.314-5.182a7.818,7.818,0,0,1-6.81,1.943c-4.44-.663-9.052-.979-10.142-1.738s-2.139-12.386-3.244-11.848Z" transform="translate(-2657.854 -2284.315)" fill="#ffdfc7"/>
      <path id="Path_759" data-name="Path 759" d="M2617.115,2716.121s-1.388,3.267-1.172,3.976,1.882.832,1.882.832h-2.835a4.745,4.745,0,0,1,.247-1.294,35.683,35.683,0,0,0,.493-3.945l1.386.432Z" transform="translate(-2444.829 -2538.978)" fill="#ed9f4a"/>
      <path id="Path_760" data-name="Path 760" d="M2656.563,2729.45s1.226,3.629,1.849,3.884a11.69,11.69,0,0,0,1.661.461H2657.6s.346-.513.12-.76-2.24-3.3-2.24-3.3Z" transform="translate(-2482.686 -2551.843)" fill="#ed9f4a"/>
      <path id="Path_761" data-name="Path 761" d="M2567.464,2528.814c.074.316-.735.379-1.376.463a4.312,4.312,0,0,0-.548.111,2.918,2.918,0,0,1-.712.089,2.855,2.855,0,0,1-.464-.038c-.535,1.315-.3,4.708-.7,7.723-.263,1.934-1.934,2.963-3.962,3.4l.01.01a.3.3,0,0,0-.062.011,3.008,3.008,0,0,1-.3.052c-.179.053-.346.111-.333.21a7.03,7.03,0,0,1-.083,1.009l-.684.221s-1-1.229-1.229-1.229c-.01,0-.01,0-.01-.009h-.189l.031.009s-.525.7-.714.726a5.657,5.657,0,0,1-.925-.147,8.579,8.579,0,0,1-.554-.767l-.18-.031a4.92,4.92,0,0,1-3.53-3.447h-.011a9.256,9.256,0,0,1-.483-1.871,3.352,3.352,0,0,0,2.448,0c5.314-2.123,9.121.641,9.372-2.258a14.164,14.164,0,0,1,1.217-4.718,1.353,1.353,0,0,1,.505-1.03,1.028,1.028,0,0,1,1.188.167,2.3,2.3,0,0,0,.409.284c.694.383,1.8.707,1.875,1.054Z" transform="translate(-2384.49 -2362.743)" fill="#ffe7d7"/>
      <path id="Path_762" data-name="Path 762" d="M2783.188,2536.427c.25.111.266.63.25.951.65-.087,1.455-.155,1.385-.47-.076-.332-1.178-.665-1.882-1.058a.515.515,0,0,0,.248.577Z" transform="translate(-2601.844 -2370.841)" fill="#ed9f4a"/>
      <path id="Path_763" data-name="Path 763" d="M2571.46,2561.508c-.535,1.314-.3,4.708-.7,7.723-.263,1.933-1.934,2.963-3.961,3.4l.01.01a.3.3,0,0,0-.063.011,2.914,2.914,0,0,1-.3.052c-.178.053-.346.11-.332.21a6.988,6.988,0,0,1-.084,1.009l-.683.221s-1-1.229-1.229-1.229c-.01,0-.01,0-.01-.01h-.19l.031.01s-.525.7-.714.725a5.654,5.654,0,0,1-.925-.147,8.543,8.543,0,0,1-.553-.767l-.18-.031a4.92,4.92,0,0,1-3.53-3.447,5.2,5.2,0,0,0,4.529,1.293c2.952-.442,6.021-.651,6.745-1.156s1.408-8.24,2.146-7.882Z" transform="translate(-2391.586 -2394.817)" fill="#ffdfc7"/>
      <path id="Path_764" data-name="Path 764" d="M4702.18,2643.226c-3.424-1.43-7.278-3.267-5.358-3.591,1.994-.332,5.256,1.781,7.463,3.448.417-.031.833-.063,1.246-.1-1.059-2.047-2.734-5.723-1.272-6.015,1.521-.3,1.93,3.709,2.011,5.946.974-.1,1.921-.221,2.817-.393,7.006-1.329,16.905,4.83,16.905,4.83H4691.48c.244-3.415,5.292-3.774,10.7-4.124Z" transform="translate(-4386.201 -2465.362)" fill="#82b378"/>
      <path id="Path_765" data-name="Path 765" d="M3444.668,2148.389s-2.325-.417-2.776-1.089a4.356,4.356,0,0,1-.591-1.281l3.367.836Z" transform="translate(-3217.371 -2006.377)" fill="#ffb27d"/>
      <path id="Path_766" data-name="Path 766" d="M3624.611,2740.465a.743.743,0,0,1-.134.332h-6.527c.268-.775,1.623-1.219,1.623-1.219a4.615,4.615,0,0,0,2.955-2.394l2.116-.284s.111,2.152.047,2.879c-.024.268-.052.489-.08.685Z" transform="translate(-3382.526 -2558.808)" fill="#233862"/>
      <path id="Path_767" data-name="Path 767" d="M3610.64,2281.359s1,5.913,2.007,13.336c.1.765.2,1.535.3,2.306.57,4.63.992,9.366,1.3,13.884,0,0,2.732,1.234,4.2-.307a91.142,91.142,0,0,0,1.04-9.559,16.26,16.26,0,0,0-.246-4.14,31.254,31.254,0,0,1-.4-7.2c.081-3.481.264-7.183-.394-10.367l-7.8,2.05Z" transform="translate(-3375.692 -2130.994)" fill="#6257a0"/>
      <path id="Path_768" data-name="Path 768" d="M3610.64,2281.359s1,5.913,2.007,13.336q.155,1.147.3,2.307l5.894-7.324c.081-3.481.264-7.184-.394-10.367l-7.8,2.049Z" transform="translate(-3375.692 -2130.994)" fill="#27007f"/>
      <path id="Path_769" data-name="Path 769" d="M3370.591,2721.13a4.617,4.617,0,0,1-3.585,1.271s-1.882-.041-2.1.938c0,0,3.049.837,3.826,1.077a8.494,8.494,0,0,1,1.691.8.74.74,0,0,0,1.031-.3c.091-.175.193-.381.3-.619.306-.664.917-2.732.917-2.732l-2.088-.438Z" transform="translate(-3145.952 -2544.064)" fill="#233862"/>
      <path id="Path_770" data-name="Path 770" d="M3441.7,2308.225a2.858,2.858,0,0,0,3.279,1.069,58.382,58.382,0,0,0,5.6-8.483,16.174,16.174,0,0,0,1.488-3.875c1-4.792,9.079-11.483,8.426-17.686h-9.83s-1.535,5.8-3.69,12.97c-1.554,5.171-3.426,11.057-5.277,16Z" transform="translate(-3217.745 -2130.938)" fill="#6257a0"/>
      <path id="Path_771" data-name="Path 771" d="M3683.6,1951.519c1.961,1.107,5.979.085,5.979.085a5.313,5.313,0,0,1-1.081-3.244c0-.021,0-.042,0-.063a6.437,6.437,0,0,1,.192-1.557l-2.405,1.218-.788.4s-.074.369-.142,1.048c-.034.341-.066.76-.087,1.252a5.121,5.121,0,0,0-1.668.862Z" transform="translate(-3443.904 -1820.064)" fill="#ffb27d"/>
      <path id="Path_772" data-name="Path 772" d="M3573.021,2023.79c0,.344.4.51.483.525a36.846,36.846,0,0,0,4.981,1.2,15.987,15.987,0,0,0,4.936-.332c.221-.046.757-.188.795-.406.047-.235,6.587-13.333,1.5-18.958a6.016,6.016,0,0,0-2.04.324,3.771,3.771,0,0,1-2.325-.191l-.861.453c-1.057.589-3.057,2.682-3.291,4.324,0,0,0,.006,0,.009a.061.061,0,0,0,0,.009c-.122.825-.594,1.439-.731,2.17q-.076.407-.157.8-.156.76-.322,1.449-.244,1.009-.5,1.867-.138.475-.278.91c-.051.156-.1.31-.151.459-.332.981-.653,1.8-.942,2.479-.376.885-.692,1.55-.885,2.053-.029.074-.057.145-.081.213a2.019,2.019,0,0,0-.138.646h0Z" transform="translate(-3340.521 -1875.266)" fill="#ee9849"/>
      <path id="Path_773" data-name="Path 773" d="M3710.42,1966.809c2.768.111,3.143-1.05,3.143-1.05a4.6,4.6,0,0,0-1.9-.409c-.106,0-.213,0-.318.011l-.788.4s-.073.369-.14,1.048Z" transform="translate(-3468.979 -1837.463)" fill="#ed975d"/>
      <path id="Path_774" data-name="Path 774" d="M3694.773,1893.369s2.919,2.1,4.2.257,2.515-2.807.7-4.223-2.664-.967-3.24-.458-2.388,3.835-1.661,4.424Z" transform="translate(-3454.191 -1765.569)" fill="#ffb27d"/>
      <path id="Path_775" data-name="Path 775" d="M3720.307,1869.535a4.092,4.092,0,0,1,.316-1.075c.154-.341.171.677,1.457.584s3.321.122,4.008,1.533a2.718,2.718,0,0,1,.117.277,3.17,3.17,0,0,0,.153-.782,2.333,2.333,0,0,1,0,1.367h0a.438.438,0,0,0,.01.066,2.734,2.734,0,0,1,.524.95.887.887,0,0,0-.482-.412,2.607,2.607,0,0,1-1.27,2.492c-1.188.467-1.178.111-2.373.873,0,0-.321-.383-.1-.64s1.044-.631.582-1.005-.631.047-.8-.21.68-1.005-.413-1.706-1.822-1.682-1.725-2.314Z" transform="translate(-3478.215 -1746.812)" fill="#233862"/>
      <path id="Path_776" data-name="Path 776" d="M3575.24,2121.9c9.854-.332,10.367-10.484,10.367-10.484s-4.242,2.069-8.027,4.37c-.142.488-.287.944-.428,1.369-.332.981-.653,1.8-.942,2.479-.375.886-.692,1.55-.885,2.053-.032.074-.06.142-.084.213Z" transform="translate(-3342.595 -1974.028)" fill="#e58638"/>
      <path id="Path_777" data-name="Path 777" d="M3606.931,2076.979a3.643,3.643,0,0,0,1.386-.039c3.118-.674,5.346-7.993,5.346-7.993a15.8,15.8,0,0,0-4.75.84c-.121.825-.593,1.439-.731,2.17-.05.271-.1.537-.157.8-.1.507-.213.99-.322,1.449q-.245,1.007-.5,1.867c-.092.316-.185.617-.278.91Z" transform="translate(-3372.224 -1934.307)" fill="#e58638"/>
      <path id="Path_778" data-name="Path 778" d="M3501.86,2045.374a3.474,3.474,0,0,0,1.706-.824c.3-.355.314-.6.167-.766a.759.759,0,0,0-.4-.2c-.033-.009-.068-.015-.1-.021-.508-.084-1.292,1.728-1.373,1.815Z" transform="translate(-3273.991 -1910.581)" fill="#e58638"/>
      <path id="Path_779" data-name="Path 779" d="M3523.958,2019.863c.2-.064.21.525.127.775h.008c.152-.221,1.177-1.722,1.79-1.668.654.057-.926,1.116-1.771,1.675h0c.19-.111,1.1-.6,1.585-.019,0,0,.04.221-.332.122a2.228,2.228,0,0,0-1.234-.094.572.572,0,0,1,.2.135c.055.058-.332-.022-.4-.2a1.133,1.133,0,0,1,.123.036c-.069-.155-.272-.7-.1-.758Z" transform="translate(-3294.586 -1887.593)" fill="#82b378"/>
      <path id="Path_780" data-name="Path 780" d="M3418.987,2031.279a3.468,3.468,0,0,1-1.433-1.24c-.2-.423-.143-.665.039-.783a.754.754,0,0,1,.368-.1c.022,0,.045,0,.067,0a.667.667,0,0,1,.111.007c.505.049.793,2,.849,2.109Z" transform="translate(-3195.052 -1897.121)" fill="#e58638"/>
      <path id="Path_781" data-name="Path 781" d="M3402.082,1998.654c-.174-.111-.34.452-.325.718h-.01c-.087-.258-.686-1.97-1.291-2.078-.646-.111.6,1.32,1.276,2.08h0c-.155-.158-.9-.867-1.526-.432,0,0-.1.205.287.205a2.252,2.252,0,0,1,1.218.23.586.586,0,0,0-.222.08c-.067.041.332.065.436-.093h-.127c.1-.135.44-.61.284-.709Z" transform="translate(-3178.94 -1867.322)" fill="#82b378"/>
      <path id="Path_782" data-name="Path 782" d="M3450.47,2027a5.794,5.794,0,0,1-2.166-2.31c-.261-.736-.125-1.13.2-1.294a1.274,1.274,0,0,1,.5-.1,1.3,1.3,0,0,1,.242.023,1.691,1.691,0,0,1,.172.028c.841.172.98,3.474,1.054,3.654Z" transform="translate(-3223.791 -1891.633)" fill="#e58638"/>
      <path id="Path_783" data-name="Path 783" d="M3424.91,1969.16c-.27-.221-.643.693-.665,1.136h-.014c-.1-.443-.8-3.392-1.786-3.676-1.052-.3.775,2.3,1.759,3.677h0c-.229-.292-1.345-1.6-2.46-.982,0,0-.2.323.443.39a3.737,3.737,0,0,1,1.982.593.981.981,0,0,0-.39.093c-.123.057.534.166.74-.079-.07-.01-.142-.016-.213-.019.194-.216.846-.945.6-1.135Z" transform="translate(-3199.061 -1838.628)" fill="#82b378"/>
      <path id="Path_784" data-name="Path 784" d="M3415.17,2039.61s-5.808-4.145-8.714-1.52a3.991,3.991,0,0,0,2.532,5.049C3412.737,2044.614,3417.09,2043.259,3415.17,2039.61Z" transform="translate(-3184.618 -1904.655)" fill="#ffb64d"/>
      <path id="Path_785" data-name="Path 785" d="M3500.376,2049.855s1.834,1.239.167,3.831-4.345,3.232-6.737,1.842S3495.782,2045.466,3500.376,2049.855Z" transform="translate(-3265.83 -1915.321)" fill="#82b378"/>
      <path id="Path_786" data-name="Path 786" d="M3509.785,2080.453c-.059.027,7.5-.144,6.311-5.071,0,0-.388-.775-.724.061S3515.95,2077.633,3509.785,2080.453Z" transform="translate(-3281.4 -1940.03)" fill="#67935d"/>
      <path id="Path_787" data-name="Path 787" d="M3505.332,2052.817s-.95-.979-3.043-.033c-1.626.733-3,4.055-2.848,4.9,0,0,1.964-4.413,3.543-4.558s2.645.268,2.349-.312Z" transform="translate(-3271.719 -1918.823)" fill="#67935d"/>
      <path id="Path_788" data-name="Path 788" d="M3546.66,2072.628c.095-.144,2.959-1.755,3.045-3.244S3546.66,2072.628,3546.66,2072.628Z" transform="translate(-3315.875 -1934.456)" fill="#67935d"/>
      <path id="Path_789" data-name="Path 789" d="M3595.793,2050.516a.791.791,0,0,1-.618-.333c-.143-.2.363.146.388-.332a.9.9,0,0,0,0-.1.975.975,0,0,0-.227-.626l.095.049a1.716,1.716,0,0,1,.356,1.338h0Z" transform="translate(-3361.209 -1915.792)" fill="#67935d"/>
      <path id="Path_790" data-name="Path 790" d="M3349.343,2005.213c.1,2.036,3.793,5.235,6.583,6.239a2.791,2.791,0,0,0,2.509.032,1.138,1.138,0,0,0,.221-.207c1.712-2.11.088-3.543-1.577-3.857a9.3,9.3,0,0,1-3-1.029,3.489,3.489,0,0,1-1.6-1.827c-.649-1.855-2-1.815-2-1.815a.73.73,0,0,0-.209.047,1.1,1.1,0,0,0-.175.087,1.424,1.424,0,0,0-.565.759,3.879,3.879,0,0,0-.184,1.57Z" transform="translate(-3131.391 -1872.429)" fill="#e58638"/>
      <path id="Path_791" data-name="Path 791" d="M3358.949,1998.148a.883.883,0,0,1-.675.169.16.16,0,0,0,.059-.124.167.167,0,0,0-.013-.063c-.041-.128-.207-.553-.207-.553s-.091-.091.221.047C3358.34,1997.624,3358.275,1998.047,3358.949,1998.148Z" transform="translate(-3139.585 -1867.565)" fill="#82b378"/>
      <path id="Path_792" data-name="Path 792" d="M3349.333,2016.729c.1,2.036,3.793,5.234,6.582,6.239.794.043,1.648.062,2.51.032a1.136,1.136,0,0,0,.221-.206c1.712-2.111.088-3.543-1.577-3.857a9.293,9.293,0,0,1-3-1.029,6.029,6.029,0,0,1-3.477-2.4.8.8,0,0,0-1.078-.347A3.89,3.89,0,0,0,3349.333,2016.729Z" transform="translate(-3131.381 -1883.945)" fill="#c66b28"/>
      <path id="Path_793" data-name="Path 793" d="M3450.51,2099.452a1.172,1.172,0,0,1,.841.716,1.662,1.662,0,0,1,.242-.718,1.133,1.133,0,0,1,.36.829c0,.015,0,.03,0,.044a1.614,1.614,0,0,1,.745-.183,1.631,1.631,0,0,1,.388.048c.127.031-.247.68-1.231.7a2.753,2.753,0,0,1-.175.405.984.984,0,0,1-.194-.322,1.636,1.636,0,0,1-.975-1.5v-.02h0Z" transform="translate(-3225.982 -1962.838)" fill="#82b378"/>
      <path id="Path_794" data-name="Path 794" d="M3341.846,2063.246c-.071-.1-.6-2.509-2.335-2.879a1.263,1.263,0,0,0-1.541,1.809c.372.461,3.878,1.069,3.878,1.069Z" transform="translate(-3120.612 -1926.25)" fill="#82b378"/>
      <path id="Path_795" data-name="Path 795" d="M3327.832,2028.95l19.013,4.722a.444.444,0,0,0,.534-.321l.381-1.535a.419.419,0,0,0,.012-.1.442.442,0,0,0-.333-.429l-19.013-4.722a.432.432,0,0,0-.1-.012.444.444,0,0,0-.429.333l-.38,1.535a.451.451,0,0,0-.012.1.443.443,0,0,0,.332.429h0Z" transform="translate(-3110.976 -1894.681)" fill="#ffcf83"/>
      <path id="Path_796" data-name="Path 796" d="M3580.781,2097.564l1.381-5.558a.125.125,0,0,0,0-.028.123.123,0,0,0-.093-.119l-.389-.1a.133.133,0,0,0-.03,0,.122.122,0,0,0-.118.092l-1.381,5.557a.128.128,0,0,0,0,.029.122.122,0,0,0,.094.118l.39.1a.134.134,0,0,0,.028,0,.123.123,0,0,0,.119-.092h0Z" transform="translate(-3347.186 -1955.648)" fill="#ffcf83"/>
      <path id="Path_797" data-name="Path 797" d="M3324.2,2033.816l1.381-5.557a.108.108,0,0,0,0-.03.121.121,0,0,0-.093-.117l-.39-.1a.113.113,0,0,0-.029,0,.121.121,0,0,0-.118.092l-1.381,5.558a.1.1,0,0,0,0,.03.121.121,0,0,0,.092.117l.39.1a.119.119,0,0,0,.147-.089h0Z" transform="translate(-3107.303 -1896.046)" fill="#ffcf83"/>
      <path id="Path_798" data-name="Path 798" d="M3314.749,2081.261l19.013,4.723a.449.449,0,0,0,.1.013.442.442,0,0,0,.428-.333l.376-1.535a.47.47,0,0,0,.012-.1.443.443,0,0,0-.332-.429l-19.014-4.722a.437.437,0,0,0-.1-.012.443.443,0,0,0-.429.334l-.381,1.534a.432.432,0,0,0-.012.1.443.443,0,0,0,.338.431h0Z" transform="translate(-3098.739 -1943.587)" fill="#ffcf83"/>
      <path id="Path_799" data-name="Path 799" d="M3621.71,2104.524a.219.219,0,0,0,.007-.055.229.229,0,1,0-.283.222.256.256,0,0,0,.055.006.228.228,0,0,0,.221-.173Z" transform="translate(-3385.621 -1967.316)" fill="#c18e4c"/>
      <path id="Path_800" data-name="Path 800" d="M3617.591,2121.383a.228.228,0,1,0-.45-.055.229.229,0,0,0,.173.222.248.248,0,0,0,.056.006.226.226,0,0,0,.22-.173h0Z" transform="translate(-3381.77 -1983.079)" fill="#c18e4c"/>
      <path id="Path_801" data-name="Path 801" d="M3608.74,2156.754a.211.211,0,0,0,.007-.055.224.224,0,1,0-.224.23.22.22,0,0,0,.216-.175h0Z" transform="translate(-3373.495 -2016.148)" fill="#c18e4c"/>
      <path id="Path_802" data-name="Path 802" d="M3604.56,2173.534a.217.217,0,0,0,.006-.056.228.228,0,1,0-.282.222.233.233,0,0,0,.059.008.222.222,0,0,0,.216-.174h0Z" transform="translate(-3369.587 -2031.835)" fill="#c18e4c"/>
      <path id="Path_803" data-name="Path 803" d="M3344.53,2035.684a.214.214,0,0,0,.007-.055.229.229,0,1,0-.283.222.226.226,0,0,0,.054.007.228.228,0,0,0,.222-.172h0Z" transform="translate(-3126.477 -1902.955)" fill="#c18e4c"/>
      <path id="Path_804" data-name="Path 804" d="M3340.278,2052.581a.26.26,0,0,0,.006-.053.227.227,0,1,0-.282.219.2.2,0,0,0,.059.009.221.221,0,0,0,.216-.175h0Z" transform="translate(-3122.504 -1918.756)" fill="#c18e4c"/>
      <path id="Path_805" data-name="Path 805" d="M3331.581,2087.833a.209.209,0,0,0,.006-.055.228.228,0,1,0-.283.221.222.222,0,0,0,.055.007.228.228,0,0,0,.221-.173h0Z" transform="translate(-3114.37 -1951.712)" fill="#c18e4c"/>
      <path id="Path_806" data-name="Path 806" d="M3327.391,2104.694a.212.212,0,0,0,.006-.056.228.228,0,1,0-.283.223.258.258,0,0,0,.054.006.229.229,0,0,0,.222-.172h0Z" transform="translate(-3110.453 -1967.475)" fill="#c18e4c"/>
      <path id="Path_807" data-name="Path 807" d="M3506.061,2048.087s-4.848,8.386-8.041,9.6c-2.278.862-10.844-2.356-10.844-2.356s-.932-1.193,0-1.771c0,0,7.8.748,8.373.38s3.857-6.629,4.885-7.341S3505.981,2046.12,3506.061,2048.087Z" transform="translate(-3259.875 -1913.078)" fill="#ee9849"/>
      <path id="Path_808" data-name="Path 808" d="M3692.214,1832.315c2.747,2.895,6.009,4.259,7.289,3.046s.088-4.539-2.657-7.44-6.01-4.259-7.29-3.046S3689.464,1829.419,3692.214,1832.315Z" transform="translate(-3448.993 -1705.714)" fill="#ffcf83"/>
      <path id="Path_809" data-name="Path 809" d="M3743.28,1851.577s2.891-1.905,4.928-.229.159,5.321.159,5.321a7.272,7.272,0,0,1-3.839-2.033,4.16,4.16,0,0,1-1.249-3.058Z" transform="translate(-3499.691 -1730.234)" fill="#edbd77"/>
    </g>
  </g>
</svg>
