<svg id="Layer_x0020_1" xmlns="http://www.w3.org/2000/svg" width="18.177" height="17.487" viewBox="0 0 18.177 17.487">
  <g id="_105553191627424" transform="translate(0)">
    <path id="Path_14" data-name="Path 14" d="M4.372,814.928H1.748A1.749,1.749,0,0,1,0,813.179v-6.12a1.749,1.749,0,0,1,1.749-1.748H4.372v9.618Z" transform="translate(0 -797.484)" fill="#f7ae29" fill-rule="evenodd"/>
    <path id="Path_15" data-name="Path 15" d="M555.63,6.12v-3.5A2.624,2.624,0,0,0,553.007,0l-3.5,7.869v9.618h9.882A1.749,1.749,0,0,0,561.121,16l1.206-7.869a1.787,1.787,0,0,0,.02-.262A1.749,1.749,0,0,0,560.6,6.12H555.63Z" transform="translate(-544.17)" fill="#f7ae29" fill-rule="evenodd"/>
  </g>
</svg>
