<svg xmlns="http://www.w3.org/2000/svg" width="9.562" height="9.562" viewBox="0 0 9.562 9.562"><defs><style>.a{fill:#1fb219;}</style></defs><path class="a" d="M4.179,2.442,2.888.29A.6.6,0,0,0,2.376,0H.3A.3.3,0,0,0,.055.47L2.133,3.439a3.865,3.865,0,0,1,2.046-1ZM9.263,0H7.188a.6.6,0,0,0-.512.29L5.384,2.442a3.866,3.866,0,0,1,2.046,1L9.508.47A.3.3,0,0,0,9.263,0ZM4.782,2.988A3.287,3.287,0,1,0,8.069,6.275,3.287,3.287,0,0,0,4.782,2.988ZM6.51,5.925l-.708.69.168.975a.214.214,0,0,1-.311.226l-.876-.46-.876.46a.214.214,0,0,1-.311-.226l.168-.975-.708-.69a.215.215,0,0,1,.119-.366l.979-.143.438-.887a.215.215,0,0,1,.385,0l.438.887.979.143A.215.215,0,0,1,6.51,5.925Z" transform="translate(-0.001)"/></svg>