<svg xmlns="http://www.w3.org/2000/svg" width="17.143" height="12" viewBox="0 0 17.143 12"><defs><style>.a{fill:#3cb554;}</style></defs><path class="a" d="M16.638,32.6A7.932,7.932,0,0,0,13.52,32c-3.3,0-6.6,1.67-9.9,1.67A8.127,8.127,0,0,1,1.141,33.3a.916.916,0,0,0-.277-.043A.852.852,0,0,0,0,34.111v8.5a.852.852,0,0,0,.5.789,7.928,7.928,0,0,0,3.118.6c3.3,0,6.6-1.67,9.9-1.67A8.127,8.127,0,0,1,16,42.7a.916.916,0,0,0,.277.043.852.852,0,0,0,.864-.852v-8.5a.853.853,0,0,0-.5-.789Zm-8.067,7.97A2.387,2.387,0,0,1,6.429,38a2.387,2.387,0,0,1,2.143-2.571A2.387,2.387,0,0,1,10.714,38,2.387,2.387,0,0,1,8.571,40.571Z" transform="translate(0 -32)"/></svg>