<svg xmlns="http://www.w3.org/2000/svg" width="19.996" height="13.997" viewBox="0 0 19.996 13.997"><defs><style>.a{fill:#fff;}</style></defs><path class="a" d="M19.407,32.7A9.252,9.252,0,0,0,15.77,32c-3.848,0-7.7,1.948-11.544,1.948a9.479,9.479,0,0,1-2.895-.429,1.068,1.068,0,0,0-.323-.051A.994.994,0,0,0,0,34.462v9.912a.994.994,0,0,0,.589.92,9.247,9.247,0,0,0,3.637.7c3.848,0,7.7-1.948,11.545-1.948a9.479,9.479,0,0,1,2.895.429,1.068,1.068,0,0,0,.323.051A.994.994,0,0,0,20,43.534V33.622a1,1,0,0,0-.589-.921ZM10,42a2.784,2.784,0,0,1-2.5-3A2.784,2.784,0,0,1,10,36a2.784,2.784,0,0,1,2.5,3A2.784,2.784,0,0,1,10,42Z" transform="translate(0 -32)"/></svg>