<svg id="Layer_x0020_1" xmlns="http://www.w3.org/2000/svg" width="20.844" height="22.007" viewBox="0 0 20.844 22.007">
  <path id="Path_10" data-name="Path 10" d="M3.334.926c.691-.2,1.383-.369,2.079-.5A26.161,26.161,0,0,1,10.376,0a30.542,30.542,0,0,1,4.963.4,20.934,20.934,0,0,1,2.433.579L17.766,1a4.441,4.441,0,0,1,2.806,4.071h.015c.031.446.061.886.087,1.332.087,1.516.143,3.042.149,4.558s-.041,3.042-.113,4.558c-.02.374-.041.748-.067,1.122a4.555,4.555,0,0,1-2.709,4.281h0l-.118.036h-.005a21.909,21.909,0,0,1-2.433.6,27.9,27.9,0,0,1-5,.44,26.482,26.482,0,0,1-4.993-.425c-.784-.149-1.567-.343-2.351-.574l.005-.036A4.408,4.408,0,0,1,.19,16.976l-.036-.02q-.046-.7-.077-1.4C.01,14.037-.026,12.521-.02,11S.026,7.958.1,6.442c.02-.358.041-.722.061-1.081C.225,3.082,1.577,1.218,3.324.916Zm1.49,15.866a1.193,1.193,0,1,1,0-2.387H9.444a1.193,1.193,0,1,1,0,2.387Zm.067-10a1.193,1.193,0,1,1,0-2.387H15.917a1.193,1.193,0,0,1,0,2.387H4.891Zm0,5.055a1.193,1.193,0,0,1,0-2.387H15.917a1.193,1.193,0,0,1,0,2.387H4.891Z" transform="translate(0.021 0.001)" fill="#18aa1b" fill-rule="evenodd"/>
</svg>
