<svg xmlns="http://www.w3.org/2000/svg" width="85" height="85" viewBox="0 0 85 85"><defs><style>.a{fill:#e24c3f;}.b{fill:#5d5d5d;opacity:0.2;}.c{fill:#ff7063;}.d{fill:#fff;}</style></defs><path class="a" d="M85,71.693A13.307,13.307,0,0,1,71.693,85H13.307A13.307,13.307,0,0,1,0,71.693V17.3L17.3,0H71.693A13.307,13.307,0,0,1,85,13.307Z"/><path class="b" d="M0,113.816V104H9.769Z" transform="translate(0 -86.825)"/><path class="c" d="M0,18.317H12.211a6.084,6.084,0,0,0,6.106-6.059V0Z"/><path class="c" d="M85.652,205.865V176.4h14.586a9.444,9.444,0,0,1,3.689.678,7.219,7.219,0,0,1,2.671,1.887,8.209,8.209,0,0,1,1.611,2.883,11.832,11.832,0,0,1,.551,3.71,13.317,13.317,0,0,1-.53,3.816,8.915,8.915,0,0,1-1.569,3.074,7.2,7.2,0,0,1-2.65,2.035,8.941,8.941,0,0,1-3.774.742H90.443v10.643H85.652Zm4.791-25.06v9.922h8.141a5.717,5.717,0,0,0,4.092-1.251,5.246,5.246,0,0,0,1.293-3.922,4.4,4.4,0,0,0-1.378-3.647,6.3,6.3,0,0,0-4.007-1.1H90.443Z" transform="translate(-71.694 -147.895)"/><path class="c" d="M243.836,174.778l4.622-1.272v25.1a10.909,10.909,0,0,0,.085,1.442q.085.636.212,1.187.169.509.382,1.081a7.767,7.767,0,0,0,.551,1.166h-4.876a6.429,6.429,0,0,1-.509-1.145q-.17-.764-.255-1.357a12.162,12.162,0,0,1-2.9,2.141,7.339,7.339,0,0,1-3.5.869,9.744,9.744,0,0,1-3.88-.721,7.973,7.973,0,0,1-2.82-1.993,8.315,8.315,0,0,1-1.717-3.032,12.2,12.2,0,0,1-.572-3.8v-2.035q0-5.384,2.841-8.1t8.268-2.714a10.784,10.784,0,0,1,4.071.806v-7.632Zm0,11.915a6.341,6.341,0,0,0-2.141-.763,13.194,13.194,0,0,0-2.269-.212,7.737,7.737,0,0,0-2.862.466,4.907,4.907,0,0,0-1.908,1.315,5.011,5.011,0,0,0-1.06,2.035,9.982,9.982,0,0,0-.318,2.587v1.569a15.436,15.436,0,0,0,.17,2.311,5.576,5.576,0,0,0,.657,1.972,3.881,3.881,0,0,0,1.335,1.378,4.1,4.1,0,0,0,2.205.53,5.408,5.408,0,0,0,1.76-.3,8.57,8.57,0,0,0,1.675-.784,11.755,11.755,0,0,0,2.756-2.311v-9.795Z" transform="translate(-191.304 -145.515)"/><path class="c" d="M362.056,179.739a8.442,8.442,0,0,1,.318-2.311,5.75,5.75,0,0,1,1-1.993,4.919,4.919,0,0,1,1.781-1.4,6.018,6.018,0,0,1,2.629-.53,10.294,10.294,0,0,1,1.632.148,11.751,11.751,0,0,1,1.59.361v3.647h-1.7a2.535,2.535,0,0,0-1.971.721,2.847,2.847,0,0,0-.657,1.993v1.739h4.113l-1.23,3.816h-2.883v17.555h-4.622V185.93h-2.671v-3.816h2.671v-2.375h0Z" transform="translate(-300.126 -145.493)"/><path class="d" d="M85.652,199.865V170.4h14.586a9.444,9.444,0,0,1,3.689.678,7.219,7.219,0,0,1,2.671,1.887,8.209,8.209,0,0,1,1.611,2.883,11.832,11.832,0,0,1,.551,3.71,13.317,13.317,0,0,1-.53,3.816,8.916,8.916,0,0,1-1.569,3.074,7.2,7.2,0,0,1-2.65,2.035,8.941,8.941,0,0,1-3.774.742H90.443v10.643H85.652Zm4.791-25.06v9.922h8.141a5.717,5.717,0,0,0,4.092-1.251,5.246,5.246,0,0,0,1.293-3.922,4.4,4.4,0,0,0-1.378-3.647,6.3,6.3,0,0,0-4.007-1.1H90.443Z" transform="translate(-71.694 -142.864)"/><path class="d" d="M243.836,168.778l4.622-1.272v25.1a10.908,10.908,0,0,0,.085,1.442q.085.636.212,1.187.169.509.382,1.081a7.767,7.767,0,0,0,.551,1.166h-4.876a6.43,6.43,0,0,1-.509-1.145q-.17-.764-.255-1.357a12.162,12.162,0,0,1-2.9,2.141,7.339,7.339,0,0,1-3.5.869,9.744,9.744,0,0,1-3.88-.721,7.973,7.973,0,0,1-2.82-1.993,8.315,8.315,0,0,1-1.717-3.032,12.2,12.2,0,0,1-.572-3.8v-2.035q0-5.384,2.841-8.1t8.268-2.714a10.784,10.784,0,0,1,4.071.806v-7.632Zm0,11.915a6.342,6.342,0,0,0-2.141-.763,13.2,13.2,0,0,0-2.269-.212,7.737,7.737,0,0,0-2.862.466,4.907,4.907,0,0,0-1.908,1.315,5.011,5.011,0,0,0-1.06,2.035,9.982,9.982,0,0,0-.318,2.587v1.569a15.436,15.436,0,0,0,.17,2.311,5.576,5.576,0,0,0,.657,1.972,3.881,3.881,0,0,0,1.335,1.378,4.1,4.1,0,0,0,2.205.53,5.408,5.408,0,0,0,1.76-.3,8.57,8.57,0,0,0,1.675-.784,11.755,11.755,0,0,0,2.756-2.311v-9.795Z" transform="translate(-191.304 -140.483)"/><path class="d" d="M362.056,173.739a8.442,8.442,0,0,1,.318-2.311,5.75,5.75,0,0,1,1-1.993,4.92,4.92,0,0,1,1.781-1.4,6.019,6.019,0,0,1,2.629-.53,10.292,10.292,0,0,1,1.632.148,11.751,11.751,0,0,1,1.59.361v3.646h-1.7a2.535,2.535,0,0,0-1.971.721,2.847,2.847,0,0,0-.657,1.993v1.739h4.113l-1.23,3.816h-2.883v17.555h-4.622V179.93h-2.671v-3.816h2.671v-2.375Z" transform="translate(-300.126 -140.462)"/></svg>