<svg xmlns="http://www.w3.org/2000/svg" xmlns:xlink="http://www.w3.org/1999/xlink" width="125" height="79.5" viewBox="0 0 125 79.5">
  <defs>
    <filter id="Union_1" x="0" y="0" width="125" height="79" filterUnits="userSpaceOnUse">
      <feOffset dy="3" input="SourceAlpha"/>
      <feGaussianBlur stdDeviation="2.5" result="blur"/>
      <feFlood flood-opacity="0.071"/>
      <feComposite operator="in" in2="blur"/>
      <feComposite in="SourceGraphic"/>
    </filter>
  </defs>
  <g id="Group_368" data-name="Group 368" transform="translate(-145.5 -273.5)">
    <g id="Group_365" data-name="Group 365" transform="translate(31 -40)">
      <g id="Group_366" data-name="Group 366" transform="translate(-1.4)">
        <g transform="matrix(1, 0, 0, 1, 115.9, 313.5)" filter="url(#Union_1)">
          <path id="Union_1-2" data-name="Union 1" d="M48.79,43H20A20,20,0,0,1,0,23V20A20,20,0,0,1,20,0H90a20,20,0,0,1,20,20v3A20,20,0,0,1,90,43H61.21L55,64Z" transform="translate(7.5 4.5)" fill="#fff"/>
        </g>
      </g>
      <text id="Gunakan_lokasi_ini" data-name="Gunakan
lokasi ini" transform="translate(197 337)" fill="#2ec4b6" font-size="14" font-family="Metropolis-SemiBold, Metropolis" font-weight="600"><tspan x="-29.967" y="0">Gunakan</tspan><tspan x="-29.337" y="14">lokasi ini</tspan></text>
      <g id="Group_367" data-name="Group 367" transform="translate(-59 74.281)">
        <circle id="Ellipse_278" data-name="Ellipse 278" cx="18" cy="18" r="18" transform="translate(185 247.719)" fill="#2ec4b6"/>
        <path id="shopping-bag-solid" d="M10.515,4.779V3.823a3.823,3.823,0,1,0-7.647,0v.956H0V12.9a2.39,2.39,0,0,0,2.39,2.39h8.6a2.39,2.39,0,0,0,2.39-2.39V4.779ZM4.779,3.823a1.912,1.912,0,0,1,3.823,0v.956H4.779ZM9.559,7.408a.717.717,0,1,1,.717-.717A.717.717,0,0,1,9.559,7.408Zm-5.735,0a.717.717,0,1,1,.717-.717A.717.717,0,0,1,3.823,7.408Z" transform="translate(196.069 258.22)" fill="#fff"/>
      </g>
    </g>
    <ellipse id="Ellipse_279" data-name="Ellipse 279" cx="5" cy="3" rx="5" ry="3" transform="translate(203 347)" fill="#9fa3a7"/>
  </g>
</svg>
