<svg xmlns="http://www.w3.org/2000/svg" width="35" height="35" viewBox="0 0 35 35">
  <g id="Group_30" data-name="Group 30" transform="translate(-317 -54)">
    <circle id="Ellipse_11" data-name="Ellipse 11" cx="17.5" cy="17.5" r="17.5" transform="translate(317 54)" fill="#f8b52a"/>
    <g id="Layer_x0020_1" transform="translate(324 58)">
      <g id="_105553214275104">
        <path id="Path_8" data-name="Path 8" d="M8.29,0A6.48,6.48,0,1,1,1.81,6.48,6.475,6.475,0,0,1,8.29,0Z" transform="translate(2.616 0)" fill="#fff" fill-rule="evenodd"/>
        <path id="Path_9" data-name="Path 9" d="M6.015,5.88h9.756A6.042,6.042,0,0,1,21.787,11.9h0a6.042,6.042,0,0,1-6.015,6.015H6.015A6.042,6.042,0,0,1,0,11.9H0A6.042,6.042,0,0,1,6.015,5.88Z" transform="translate(0 8.498)" fill="#fff" fill-rule="evenodd"/>
      </g>
    </g>
  </g>
</svg>
