<svg xmlns="http://www.w3.org/2000/svg" width="19.057" height="19.057" viewBox="0 0 19.057 19.057"><defs><style>.a{fill:#fff;}</style></defs><path class="a" d="M0,277.91a2.062,2.062,0,0,0,2.06,2.06H17a2.062,2.062,0,0,0,2.06-2.06V271H0ZM12.716,275.8h1.771a.439.439,0,0,0,.438-.438v-1.771a.558.558,0,0,1,1.117,0v1.771a1.557,1.557,0,0,1-1.555,1.555H12.716A.558.558,0,0,1,12.716,275.8Zm-9.7-2.209a.558.558,0,0,1,1.117,0v1.771a.439.439,0,0,0,.438.438H6.341a.558.558,0,0,1,0,1.117H4.57a1.557,1.557,0,0,1-1.555-1.555Z" transform="translate(0 -260.913)"/><path class="a" d="M17,0H2.06A2.062,2.062,0,0,0,0,2.06V8.97H19.057V2.06A2.062,2.062,0,0,0,17,0ZM6.341,4.094H4.57a.439.439,0,0,0-.438.438V6.3a.558.558,0,0,1-1.117,0V4.533A1.557,1.557,0,0,1,4.57,2.978H6.341A.558.558,0,0,1,6.341,4.094Zm9.7,2.209a.558.558,0,0,1-1.117,0V4.533a.439.439,0,0,0-.438-.438H12.716a.558.558,0,0,1,0-1.117h1.771a1.557,1.557,0,0,1,1.555,1.555Z" transform="translate(0 0)"/></svg>