<svg xmlns="http://www.w3.org/2000/svg" width="19.998" height="19.998" viewBox="0 0 19.998 19.998"><defs><style>.a{fill:#707070;}</style></defs><path class="a" d="M28,18A10,10,0,1,1,18,8,10,10,0,0,1,28,18Zm-9.731-6.693a5.222,5.222,0,0,0-4.7,2.571.484.484,0,0,0,.109.655l1.4,1.061a.484.484,0,0,0,.672-.086c.72-.914,1.214-1.443,2.31-1.443.824,0,1.842.53,1.842,1.329,0,.6-.5.914-1.312,1.37-.948.532-2.2,1.193-2.2,2.849v.161a.484.484,0,0,0,.484.484h2.258a.484.484,0,0,0,.484-.484v-.054c0-1.148,3.354-1.2,3.354-4.3C22.966,13.08,20.54,11.306,18.267,11.306Zm-.268,10a1.855,1.855,0,1,0,1.855,1.855A1.857,1.857,0,0,0,18,21.305Z" transform="translate(-8 -8)"/></svg>