<svg xmlns="http://www.w3.org/2000/svg" width="13.364" height="15.703" viewBox="0 0 13.364 15.703">
  <path id="receipt-solid" d="M12.473.085,11.136,1.644,9.243.085a.553.553,0,0,0-.668,0L6.682,1.644,4.789.085a.553.553,0,0,0-.668,0L2.227,1.644.891.085A.557.557,0,0,0,0,.531V15.119a.557.557,0,0,0,.891.445L2.227,14,4.12,15.564a.553.553,0,0,0,.668,0L6.682,14l1.893,1.559a.553.553,0,0,0,.668,0L11.136,14l1.336,1.559a.557.557,0,0,0,.891-.445V.531a.557.557,0,0,0-.891-.445ZM9.243,9.161a.279.279,0,0,1-.278.278H2.506a.279.279,0,0,1-.278-.278V8.6a.279.279,0,0,1,.278-.278H8.965a.279.279,0,0,1,.278.278Zm1.893-3.341a.279.279,0,0,1-.278.278H2.506a.279.279,0,0,1-.278-.278V5.264a.279.279,0,0,1,.278-.278h8.352a.279.279,0,0,1,.278.278Z" transform="translate(0 0.027)" fill="#9fa3a7"/>
</svg>
