<?xml version="1.0" encoding="UTF-8"?>
<!DOCTYPE svg PUBLIC "-//W3C//DTD SVG 1.1//EN" "http://www.w3.org/Graphics/SVG/1.1/DTD/svg11.dtd">
<!-- Creator: CorelDRAW (Evaluation Version) -->
<svg xmlns="http://www.w3.org/2000/svg" xml:space="preserve" width="19.4512mm" height="42.0122mm" version="1.1" style="shape-rendering:geometricPrecision; text-rendering:geometricPrecision; image-rendering:optimizeQuality; fill-rule:evenodd; clip-rule:evenodd"
viewBox="0 0 1945.12 4201.22"
 xmlns:xlink="http://www.w3.org/1999/xlink"
 xmlns:xodm="http://www.corel.com/coreldraw/odm/2003">
 <defs>
  <style type="text/css">
   <![CDATA[
    .fil0 {fill:white}
   ]]>
  </style>
 </defs>
 <g id="Layer_x0020_1">
  <metadata id="CorelCorpID_0Corel-Layer"/>
  <path class="fil0" d="M1818.12 0l127 0 0 0.09 0 35.43 0 91.58 -35.52 0 0 -91.58 -91.48 0 0 -35.52zm-1691.12 1740.7l-127 0 0 -0.09 0 -35.43 0 -91.58 35.52 0 0 91.58 91.48 0 0 35.52zm1691.12 0l127 0 0 -0.09 0 -35.43 0 -91.58 -35.52 0 0 91.58 -91.48 0 0 35.52zm-1691.12 -1740.7l-127 0 0 0.09 0 35.43 0 91.58 35.52 0 0 -91.58 91.48 0 0 -35.52z"/>
  <g>
   <path id="Path_1251" class="fil0" d="M977.98 4159.75c0.13,0 0.26,0 0.39,0 14.5,0 27.34,-9.42 31.69,-23.25 1.96,-6.23 0.85,-44.53 0.85,-53.97 0,-19.18 -0.32,-30.49 7.94,-46.09 17.54,-33.12 69.62,-37.89 92.96,-69.48 8.88,-12.02 10.42,-26.83 10.41,-44.38 0,-18.06 0,-36.12 0,-54.18l-2.42 2.71c-0.41,0.56 -0.7,1.14 -1.28,2.02 -0.81,1.34 -1.79,2.56 -2.92,3.63 -1.99,2.4 -4.13,4.7 -6.36,6.86 -31.26,26.99 -95.88,25.29 -120.55,69.09 -14.71,26.1 -10.73,66.06 -10.73,98.47l0 108.56 0.02 0.01zm-155.08 -249.89c0,18.33 0,36.67 0,55 0,34.84 9.31,51.28 40.96,68.26 20.88,11.21 51.61,23.63 62.64,45.37 8.04,15.85 7.71,26.68 7.71,46.32 0,10.01 -1.26,46.82 1.05,53.78 4.56,13.52 17.25,22.63 31.52,22.63 0.05,0 0.12,0 0.18,0l-0.01 -109.38c0,-32.02 3.97,-72.48 -10.46,-97.74 -20.73,-36.28 -69.62,-41.47 -104.8,-58.47 -21.26,-10.28 -25.06,-22.8 -28.79,-25.78l0 0.01zm155.08 249.89l0 0 0 0zm-155.08 -249.89l0 0 0 0z" data-name="Path 1251"/>
  </g>
 </g>
</svg>
