<svg id="Group_6" data-name="Group 6" xmlns="http://www.w3.org/2000/svg" width="24.568" height="22.123" viewBox="0 0 24.568 22.123">
  <path id="Path_4" data-name="Path 4" d="M17.538,5.178A1.179,1.179,0,0,0,17.5,6.831l1.846,1.917a1.149,1.149,0,0,0,.82.349A1.179,1.179,0,0,0,21,8.777l4.525-4.354A7.066,7.066,0,0,1,18.9,14.272a7.156,7.156,0,0,1-2.9-.684L7.7,21.562A2.5,2.5,0,0,1,3.47,19.716a2.541,2.541,0,0,1,.763-1.753l8.3-7.975A7.066,7.066,0,0,1,19.156.139a7.156,7.156,0,0,1,2.9.684l-4.511,4.34-.014.014Z" transform="translate(-1.531 -0.138)" fill="#a0a4a8" fill-rule="evenodd"/>
  <path id="Path_5" data-name="Path 5" d="M0,2.551,2.252,0,7.383,2.031,8.73,5.659l3.243,2.858L9.785,11.239,6.371,8.4,2.665,7.447Z" transform="translate(0.588 0.401) rotate(3)" fill="none" fill-rule="evenodd"/>
  <path id="Path_6" data-name="Path 6" d="M17.33,19.209l7.148,6.428a2.533,2.533,0,0,0,1.8.641,2.5,2.5,0,0,0,2.366-2.623,2.472,2.472,0,0,0-.827-1.725L20.744,15.56l-3.407,3.656Z" transform="translate(-5.513 -4.569)" fill="none" fill-rule="evenodd"/>
  <line id="Line_2" data-name="Line 2" x2="2.387" y2="2.117" transform="translate(15.986 15.131)" fill="none"/>
  <path id="Path_7" data-name="Path 7" d="M0,0,.513.449" transform="translate(19.984 18.716)" fill="none"/>
</svg>
