<svg id="Layer_x0020_1" xmlns="http://www.w3.org/2000/svg" width="20.948" height="20.884" viewBox="0 0 20.948 20.884">
  <g id="_105553190104928" transform="translate(0 0)">
    <path id="Path_11" data-name="Path 11" d="M3.251,5.019h.016c-.16-.961-.8-3.507-3.235-3.507C.032,1.512-.24.038.8-.01,1.826-.042,4.644.951,5.413,5H19.378a1.572,1.572,0,0,1,1.569,1.569.913.913,0,0,1-.016.208h.016l-.737,6.086h-.048a3.461,3.461,0,0,1-3.3,2.931l-.016.032-8.536-.048H8.088A3.422,3.422,0,0,1,4.74,13.139H4.708L3.844,8.4h0L3.283,5.355h0L3.219,5ZM9.4,12.466a.833.833,0,0,1,0-1.666h6.214a.833.833,0,0,1,0,1.666Zm0-3.011a.833.833,0,0,1,0-1.666h6.214a.833.833,0,0,1,0,1.666Z" transform="translate(0 0.01)" fill="#009c4d" fill-rule="evenodd"/>
    <ellipse id="Ellipse_1" data-name="Ellipse 1" cx="1.65" cy="1.65" rx="1.65" ry="1.65" transform="translate(6.486 17.585)" fill="#009c4d"/>
    <ellipse id="Ellipse_2" data-name="Ellipse 2" cx="1.65" cy="1.65" rx="1.65" ry="1.65" transform="translate(13.805 17.585)" fill="#009c4d"/>
  </g>
</svg>
