<svg xmlns="http://www.w3.org/2000/svg" width="20.618" height="20.59" viewBox="0 0 20.618 20.59"><defs><style>.a{fill:#ebebeb;}.a,.b{fill-rule:evenodd;}.b{fill:#a3a3a3;}</style></defs><g transform="translate(0.011 0.009)"><g transform="translate(-0.011 -0.009)"><path class="a" d="M12.566,19.6h3.561a4.712,4.712,0,0,0,2.911-.629c1.836-1.365,1.555-2.761,1.555-5.487,0-2.251.14-4.41-.608-6.434A10.421,10.421,0,0,0,12.7.272,10.371,10.371,0,0,0,6.661.642a11.473,11.473,0,0,0-1.767.915A9.68,9.68,0,0,0,2.575,3.583a17.821,17.821,0,0,0-1.1,1.581A11.686,11.686,0,0,0-.011,11.557c0,1.642,1.4,1.433,1.786.832.411-.638-.307-3.451,1.082-5.947A6.834,6.834,0,0,1,4.355,4.4,8.9,8.9,0,0,1,6.346,2.9a8.469,8.469,0,0,1,9.356.977,8.362,8.362,0,0,1,2.922,5.845,59.276,59.276,0,0,1-.063,6.9,2.125,2.125,0,0,1-.853.917,4.383,4.383,0,0,1-1.636.135H12.566c-.433-.969-1.53-1.042-2.875-.959a1.928,1.928,0,1,0-.006,3.856c1.375.041,2.415.042,2.88-.965Z" transform="translate(0.011 0.009)"/><path class="b" d="M1328.321,794.224a12.261,12.261,0,0,0,.014-2.8c-.4-2.4-3.716-2.823-4.343-1.472a26.344,26.344,0,0,0-.12,4.214c0,1.089-.056,1.708.826,2.062C1325.8,796.675,1328.079,796,1328.321,794.224Z" transform="translate(-1310.996 -781.533)"/><path class="b" d="M330.845,794.557c.141,1.708,1.538,2.557,3.344,2.407,1.117-.092,1.142-1.086,1.133-1.763-.012-.965-.016-1.932-.018-2.9,0-1.038.127-1.844-.643-2.244a2.831,2.831,0,0,0-3.723,1.73,12.926,12.926,0,0,0-.094,2.767Z" transform="translate(-327.603 -782.188)"/></g></g></svg>