<svg xmlns="http://www.w3.org/2000/svg" width="25.718" height="20.017" viewBox="0 0 25.718 20.017"><defs><style>.a{fill:#ebebeb;}.a,.b,.c{fill-rule:evenodd;}.b{fill:#a3a3a3;}.c{fill:#fefeff;}</style></defs><g transform="translate(-0.004 0.004)"><g transform="translate(0.004 -0.004)"><path class="a" d="M4.917,96.4a59.4,59.4,0,0,1,6.3.065,2.041,2.041,0,0,1,1.59,1.621c.313,1.372-.9,1.135-1.917,1.135H4.469c-.5,0-1.1.074-1.387-.217-.359-.363-.315-2.276,1.835-2.6Zm11.409-1.423a18.294,18.294,0,0,1,2.109-.022c.658,0,3.763-.119,4.134.144a.706.706,0,0,1-.293,1.254,17.418,17.418,0,0,1-2.117.025,24.519,24.519,0,0,1-4.147-.13.709.709,0,0,1,.315-1.271Zm0-2.844a18.29,18.29,0,0,1,2.109-.022c.658,0,3.763-.119,4.134.144a.706.706,0,0,1-.293,1.254,17.414,17.414,0,0,1-2.117.025,24.521,24.521,0,0,1-4.147-.13.709.709,0,0,1,.315-1.271ZM7.768,89.29a2.825,2.825,0,1,1-1.941.858A3.125,3.125,0,0,1,7.768,89.29Zm8.558,0a18.29,18.29,0,0,1,2.109-.022c.658,0,3.763-.119,4.134.144a.706.706,0,0,1-.293,1.254c-.345.068-3.621.025-4.256.025-.868,0-2.581.273-2.261-.941a.668.668,0,0,1,.568-.46Zm-16.3-2.9V97.445c0,.955-.135,2.718.253,3.466.488.94,1.22,1.156,2.525,1.155h18.6c1.032,0,2.535.163,3.316-.365.946-.639.977-1.356.977-2.774,0-1.484.067-14.5-.022-14.677l.007,2.172c-2.114.054-4.3,0-6.418,0-1.394,0-18.74.079-19.239-.034Z" transform="translate(-0.004 -82.072)"/><path class="b" d="M.147,4.377c.5.116,17.844.035,19.238.035,2.122,0,4.3.051,6.418,0L25.8,2.174A2.135,2.135,0,0,0,23.882.051C23.1-.054,13.186.024,11.9.024H3.875C2.506.024,1.4-.095.651.8c-.677.815-.5,2.349-.5,3.577Z" transform="translate(-0.124 0.004)"/><path class="b" d="M117.455,565.846c-2.206.337-2.25,2.306-1.882,2.679.295.3.912.224,1.423.224h6.583c1.041,0,2.288.244,1.966-1.168a2.1,2.1,0,0,0-1.631-1.668,60.732,60.732,0,0,0-6.459-.067Z" transform="translate(-112.417 -551.682)"/><path class="b" d="M202.612,284.363a3.2,3.2,0,0,0-1.991.883,2.916,2.916,0,1,0,1.991-.883Z" transform="translate(-194.815 -277.257)"/><path class="c" d="M624.223,283.019a.686.686,0,0,0-.583.473c-.328,1.249,1.429.968,2.319.968.652,0,4.013.045,4.366-.026a.727.727,0,0,0,.3-1.29c-.381-.271-3.565-.149-4.24-.149a18.7,18.7,0,0,0-2.163.022Z" transform="translate(-608.144 -275.853)"/><path class="c" d="M624.607,396.219a.73.73,0,0,0-.323,1.307,25.07,25.07,0,0,0,4.253.134,17.8,17.8,0,0,0,2.172-.026.727.727,0,0,0,.3-1.29c-.381-.271-3.565-.149-4.24-.149a18.686,18.686,0,0,0-2.163.023Z" transform="translate(-608.528 -386.206)"/><path class="c" d="M624.607,509.419a.73.73,0,0,0-.323,1.308,25.077,25.077,0,0,0,4.253.134,17.815,17.815,0,0,0,2.172-.026.727.727,0,0,0,.3-1.29c-.381-.271-3.565-.149-4.24-.149a18.7,18.7,0,0,0-2.163.022Z" transform="translate(-608.528 -496.56)"/></g></g></svg>