<svg xmlns="http://www.w3.org/2000/svg" width="23.053" height="21.697" viewBox="0 0 23.053 21.697"><path class="a" d="M22.364,12.208H12.308l6.7,6.7a.68.68,0,0,0,.94.029,10.149,10.149,0,0,0,3.1-5.969.679.679,0,0,0-.681-.756Zm-.671-2.746A10.2,10.2,0,0,0,12.236.005a.682.682,0,0,0-.712.687v9.482h9.483a.682.682,0,0,0,.686-.712ZM9.49,12.208V2.153a.679.679,0,0,0-.756-.681A10.163,10.163,0,0,0,0,11.885,10.3,10.3,0,0,0,10.3,21.7a10.091,10.091,0,0,0,5.732-1.866.673.673,0,0,0,.067-1.02Z" transform="translate(0.002 -0.004)"/></svg>