<svg id="Layer_x0020_1" xmlns="http://www.w3.org/2000/svg" width="21.322" height="21.807" viewBox="0 0 21.322 21.807">
  <path id="Path_2" data-name="Path 2" d="M21.047,8.069l.006.067h.018q.055.536.091,1.072l.024.321c.024.321.048.642.067.963.055.909.073,1.823.079,2.732h-.018c-.006,1.108-.048,2.217-.115,3.325-.018.3-.042.6-.067.9A3.744,3.744,0,0,1,18.363,20.9h0l-.121.03h-.006c-.83.2-1.654.363-2.483.485-.26.036-.527.073-.787.1V12.194a1.07,1.07,0,0,0-1.072-1.072H7.454a1.07,1.07,0,0,0-1.072,1.072v9.34c-.279-.03-.551-.067-.83-.109-.806-.115-1.6-.279-2.4-.466l.006-.03A3.752,3.752,0,0,1,.246,17.712L.21,17.693c-.03-.376-.055-.751-.079-1.127-.067-1.121-.1-2.241-.1-3.362H.01c.006-.909.024-1.823.067-2.732.024-.442.048-.884.085-1.327h0V9.135c.012-.2.03-.4.042-.6a1.133,1.133,0,0,1,.018-.206c.006-.091.012-.188.024-.279H.289a1.533,1.533,0,0,1,.733-.86C2.621,6,4.2,4.8,5.722,3.592c1.3-1.036,2.526-2.09,3.7-3.144A1.554,1.554,0,0,1,11.482.285h0c1.272,1.108,2.6,2.223,4,3.313,1.6,1.248,3.259,2.471,4.937,3.7h0a1.582,1.582,0,0,1,.594.751h.048ZM12.815,21.709c-.721.042-1.448.061-2.168.067s-1.417-.012-2.126-.048v-8.45h4.295v8.438Z" transform="translate(-0.01 0.03)"  fill-rule="evenodd"/>
</svg>
