<svg xmlns="http://www.w3.org/2000/svg" width="16.489" height="21.988" viewBox="0 0 16.489 21.988"><path class="a" d="M15.39.112,13.741,2.035,11.405.112a.683.683,0,0,0-.824,0L8.245,2.035,5.909.112a.683.683,0,0,0-.824,0L2.748,2.035,1.1.112A.687.687,0,0,0,0,.661V21.273a.687.687,0,0,0,1.1.55L2.748,19.9l2.336,1.924a.683.683,0,0,0,.824,0L8.245,19.9l2.336,1.924a.683.683,0,0,0,.824,0L13.741,19.9l1.649,1.924a.687.687,0,0,0,1.1-.55V.661a.687.687,0,0,0-1.1-.55ZM13.741,15.433a.345.345,0,0,1-.344.344H3.092a.345.345,0,0,1-.344-.344v-.687a.345.345,0,0,1,.344-.344H13.4a.345.345,0,0,1,.344.344Zm0-4.122a.345.345,0,0,1-.344.344H3.092a.345.345,0,0,1-.344-.344v-.687a.345.345,0,0,1,.344-.344H13.4a.345.345,0,0,1,.344.344Zm0-4.122a.345.345,0,0,1-.344.344H3.092a.345.345,0,0,1-.344-.344V6.5a.345.345,0,0,1,.344-.344H13.4a.345.345,0,0,1,.344.344Z" transform="translate(0 0.027)"/></svg>